<?xml version="1.0" encoding="utf-8"?>
<!-- Generator: Adobe Illustrator 24.2.0, SVG Export Plug-In . SVG Version: 6.00 Build 0)  -->
<svg version="1.1" xmlns="http://www.w3.org/2000/svg" xmlns:xlink="http://www.w3.org/1999/xlink" x="0px" y="0px"
	 viewBox="0 0 137.2 143.31" style="enable-background:new 0 0 137.2 143.31;" xml:space="preserve">
<style type="text/css">
	.st0{fill:#FFF7F1;}
	.st1{fill:#FF9A40;}
	.st2{fill:#E96D17;}
	.st3{fill:#FFB8A1;}
	.st4{fill:#3F2037;}
	.st5{fill:#FF8A8A;}
	.st6{opacity:0.5;}
	.st7{fill:#FFFFFF;}
	.st8{fill:#FF4F4E;}
	.st9{fill:#C42C31;}
	.st10{fill:#0075CF;}
	.st11{fill:#0056A8;}
	.st12{fill:#734669;}
</style>
<g id="BACKGROUND">
</g>
<g id="OBJECTS">
	<g>
		<g>
			<path class="st4" d="M42.12,70.93c0,0-4.17,10.52-1.83,14.08c2.34,3.56,6.85-3.52,6.85-3.52s-3.61,12.88,1.42,14.17
				c5.02,1.29,10.39-9.78,10.39-9.78S49.34,66.29,42.12,70.93z"/>
		</g>
		<g>
			<path class="st4" d="M96.31,70.93c0,0,4.17,10.52,1.83,14.08c-2.34,3.56-6.85-3.52-6.85-3.52s3.61,12.88-1.42,14.17
				c-5.02,1.29-10.39-9.78-10.39-9.78S89.09,66.29,96.31,70.93z"/>
		</g>
		<g>
			<g>
				<path class="st10" d="M137.66,145.43H0.46c0,0,0.12-1.55,0.52-3.8c0.14-0.76,0.3-1.61,0.51-2.5c0.38-1.67,0.89-3.51,1.58-5.31
					c0.32-0.85,0.68-1.69,1.09-2.5c1.07-2.14,2.43-4.05,4.16-5.31c0.56-0.41,1.16-0.75,1.81-1.01c0.86-0.35,2.01-0.86,3.38-1.49
					c2.86-1.33,6.68-3.22,10.82-5.31c1.56-0.79,3.16-1.61,4.78-2.43c0.05-0.02,0.09-0.05,0.14-0.07c3.49-1.79,7.02-3.62,10.27-5.31
					c1.06-0.56,2.1-1.09,3.09-1.61c0.58-0.3,1.15-0.6,1.7-0.89c0.09-0.05,0.17-0.09,0.26-0.13c4.44-2.33,7.71-4.06,8.48-4.47
					c0,0,0.01,0,0.01,0c0.02-0.01,0.05-0.02,0.06-0.03c0.07-0.04,0.1-0.05,0.1-0.05l1.05,0.24c1.31,0.29,2.63,0.55,3.95,0.75
					c1.31,0.21,2.62,0.38,3.93,0.51c7.24,0.71,14.57,0.21,21.68-1.49c0.01,0,0.02-0.01,0.03-0.01c0,0,3.26,1.68,8.05,4.12
					c0.37,0.19,0.74,0.38,1.13,0.58c1.53,0.78,3.19,1.62,4.93,2.5c1.57,0.8,3.21,1.62,4.88,2.46c1.28,0.64,2.58,1.3,3.88,1.95
					c0.6,0.3,1.2,0.6,1.8,0.9c1.71,0.85,3.4,1.69,5.04,2.5c4.25,2.09,8.15,3.98,11.06,5.31c1.39,0.64,2.55,1.15,3.41,1.49
					c0.64,0.26,1.25,0.6,1.81,1.01c1.73,1.26,3.09,3.17,4.16,5.31c0.4,0.81,0.77,1.65,1.09,2.5c0.68,1.8,1.2,3.64,1.58,5.31
					c0.2,0.89,0.37,1.74,0.51,2.5C137.54,143.88,137.66,145.43,137.66,145.43z"/>
			</g>
		</g>
		<g>
			<g>
				<path class="st11" d="M97.93,110.39H39.5c1.69-0.88,3.3-1.72,4.78-2.5h48.72C94.53,108.66,96.19,109.51,97.93,110.39z"/>
			</g>
			<g>
				<path class="st11" d="M113.53,118.2H24.32c1.56-0.79,3.16-1.61,4.78-2.43c0.05-0.02,0.09-0.05,0.14-0.07h79.25
					C110.19,116.55,111.89,117.39,113.53,118.2z"/>
			</g>
			<g>
				<path class="st11" d="M129.81,126.01H8.31c0.56-0.41,1.16-0.75,1.81-1.01c0.86-0.35,2.01-0.86,3.38-1.49h111.09
					c1.39,0.64,2.55,1.15,3.41,1.49C128.64,125.26,129.25,125.6,129.81,126.01z"/>
			</g>
			<g>
				<path class="st11" d="M135.05,133.82H3.07c0.32-0.85,0.68-1.69,1.09-2.5h129.81C134.37,132.13,134.73,132.97,135.05,133.82z"/>
			</g>
			<g>
				<path class="st11" d="M137.14,141.63H0.98c0.14-0.76,0.3-1.61,0.51-2.5h135.14C136.83,140.02,137,140.87,137.14,141.63z"/>
			</g>
		</g>
		<g>
			<path class="st11" d="M91.88,107.31c-1.57,5.54-8.37,14.25-22.81,14.25c-14.94,0-23.22-8.07-26.47-12.78
				c0.58-0.3,1.15-0.6,1.7-0.89c0.09-0.05,0.17-0.09,0.26-0.13c4.44-2.33,7.71-4.06,8.48-4.47c0,0,0.01,0,0.01,0
				c0.02-0.01,0.05-0.02,0.06-0.03c0.07-0.04,0.1-0.05,0.1-0.05l1.05,0.24c1.31,0.29,2.63,0.55,3.95,0.75
				c1.31,0.21,2.62,0.38,3.93,0.51c7.24,0.71,14.57,0.21,21.68-1.49c0.01,0,0.02-0.01,0.03-0.01
				C83.83,103.19,87.09,104.87,91.88,107.31z"/>
		</g>
		<g>
			<g>
				<g>
					<g>
						<g>
							<g>
								<g>
									<path class="st3" d="M84.53,106.69c0,0-2.69,8.46-15.05,8.46c-14.42,0-17.82-7.69-17.82-7.69c1.25-3.32,2.11-6.4,2.69-9.15
										h0c1.07-5.04,1.22-8.99,1.15-11.42l25.34-1c0.23,2.15,0.62,4.67,1.05,7.21C83.04,99.85,84.53,106.69,84.53,106.69z"/>
								</g>
							</g>
						</g>
					</g>
				</g>
				<g>
					<g>
						<g>
							<g>
								<g>
									<path class="st4" d="M81.89,93.1c-3.93,2.73-12.51,6.79-27.53,5.21c1.07-5.04,1.22-8.99,1.15-11.42l25.34-1
										C81.08,88.03,81.46,90.56,81.89,93.1z"/>
								</g>
							</g>
						</g>
					</g>
				</g>
			</g>
			<g>
				<g>
					<g>
						<g>
							<g>
								<g>
									<g>
										<path class="st3" d="M45.84,53.85c0,0-7.84-10.67-13.94-4.36c-6.1,6.32,5.66,28.31,16.33,23.52L45.84,53.85z"/>
									</g>
								</g>
							</g>
						</g>
					</g>
					<g>
						<g>
							<g>
								<g>
									<g>
										<path class="st5" d="M42.1,66.46c-0.27,0-0.5-0.2-0.54-0.47c-1.03-7.42-6.92-11.97-6.98-12.01
											c-0.24-0.18-0.28-0.52-0.1-0.76c0.18-0.24,0.52-0.28,0.76-0.1c0.26,0.2,6.31,4.87,7.4,12.72c0.04,0.3-0.17,0.57-0.46,0.61
											C42.15,66.46,42.12,66.46,42.1,66.46z"/>
									</g>
								</g>
							</g>
						</g>
					</g>
					<g>
						<g>
							<g>
								<g>
									<g>
										<path class="st5" d="M40.46,61.14c-0.17,0-0.34-0.08-0.45-0.24c-0.79-1.16-3.14-1.28-3.98-1.23
											c-0.3,0.02-0.56-0.21-0.57-0.51c-0.02-0.3,0.21-0.56,0.51-0.57c0.15-0.01,3.65-0.2,4.94,1.7c0.17,0.25,0.1,0.58-0.15,0.75
											C40.67,61.11,40.56,61.14,40.46,61.14z"/>
									</g>
								</g>
							</g>
						</g>
					</g>
				</g>
			</g>
			<g>
				<g>
					<g>
						<g>
							<g>
								<g>
									<g>
										<path class="st3" d="M94.33,53.85c0,0,7.84-10.67,13.94-4.36c6.1,6.32-5.66,28.31-16.33,23.52L94.33,53.85z"/>
									</g>
								</g>
							</g>
						</g>
					</g>
					<g>
						<g>
							<g>
								<g>
									<g>
										<path class="st5" d="M98.07,66.46c-0.02,0-0.05,0-0.08-0.01c-0.3-0.04-0.5-0.31-0.46-0.61c1.09-7.85,7.14-12.53,7.4-12.72
											c0.24-0.18,0.58-0.13,0.76,0.1c0.18,0.24,0.13,0.58-0.1,0.76c-0.06,0.04-5.96,4.61-6.98,12.01
											C98.57,66.27,98.34,66.46,98.07,66.46z"/>
									</g>
								</g>
							</g>
						</g>
					</g>
					<g>
						<g>
							<g>
								<g>
									<g>
										<path class="st5" d="M99.71,61.14c-0.1,0-0.21-0.03-0.3-0.09c-0.25-0.17-0.31-0.5-0.15-0.75c1.29-1.91,4.79-1.71,4.94-1.7
											c0.3,0.02,0.52,0.28,0.51,0.57c-0.02,0.3-0.28,0.53-0.57,0.51c-0.84-0.05-3.19,0.07-3.98,1.23
											C100.06,61.05,99.89,61.14,99.71,61.14z"/>
									</g>
								</g>
							</g>
						</g>
					</g>
				</g>
			</g>
			<g>
				<g>
					<g>
						<g>
							<g>
								<path class="st3" d="M76.33,22.74c-21.93-5.35-37.1,10.83-35.07,35.84c1.29,15.88,9.39,35.82,28.21,36.26
									c19.62,0.46,29.86-18.37,29.86-40.36c0-16.83-5.65-26.18-19.96-30.87C78.38,23.29,77.37,22.99,76.33,22.74z"/>
							</g>
						</g>
					</g>
				</g>
			</g>
			<g>
				<path class="st4" d="M38.23,35.72c0,0-4.34,10.03-2.77,11.83c1.33,1.54,3.38,0.48,3.38,0.48S38,58.99,42.64,59.42
					c4.65,0.43,4.07-20.12,4.07-20.12s7.69,0.21,6.25-6.16c0,0,19.92,3.79,35.3-0.26c0,0-0.64,6.15,4.55,6.96
					c0,0-3.01,18.65,2.49,20.02c5.5,1.37,5.22-11.45,5.22-11.45s2.42,0.03,3.37-0.91c2.26-2.22-1.43-14.27-7.47-22.17
					C89.79,16.68,56.74,0.25,38.23,35.72z"/>
			</g>
			<g>
				<g>
					<path class="st8" d="M103.56,33.38c0,0-1.46-0.32-4.1-0.75c-0.26-0.04-0.53-0.09-0.81-0.13c-2.69-0.42-6.39-0.92-10.87-1.31
						c-0.26-0.02-0.52-0.05-0.79-0.07c-3.2-0.26-6.77-0.47-10.64-0.56c-0.26-0.01-0.52-0.01-0.78-0.02
						c-3.33-0.06-6.87-0.03-10.57,0.12c-0.26,0.01-0.52,0.02-0.78,0.03c-3.44,0.16-7.02,0.44-10.69,0.86
						c-0.26,0.03-0.53,0.06-0.79,0.09c-3.58,0.43-7.25,0.99-10.96,1.72c-0.27,0.05-0.54,0.11-0.81,0.16
						c-1.4,0.28-2.81,0.59-4.22,0.93c0,0,1.65-11.77,11.14-19.81c0.52-0.44,1.05-0.86,1.62-1.27c2.58-1.89,5.66-3.5,9.35-4.58
						c0.31-0.09,0.62-0.18,0.94-0.26c2.02-0.53,4.22-0.91,6.61-1.09h0c0.26-0.02,0.52-0.04,0.79-0.05c0.85-0.05,1.73-0.07,2.63-0.07
						c1.23,0,2.41,0.04,3.55,0.13c0.27,0.02,0.53,0.04,0.79,0.07c2.41,0.22,4.63,0.63,6.67,1.19c0.32,0.09,0.63,0.18,0.94,0.27h0
						c3.74,1.13,6.84,2.76,9.43,4.66l0,0c0.56,0.41,1.09,0.83,1.6,1.26c0,0,0,0,0,0C101.92,22.59,103.56,33.38,103.56,33.38z"/>
				</g>
				<g>
					<g>
						<g>
							<path class="st9" d="M49.52,13.38c-3.12,5.32-6.56,12.53-7.73,20c-0.22,1.38-0.36,2.77-0.4,4.16l-0.77-0.02
								c0.04-1.33,0.17-2.66,0.37-3.98c1.03-6.93,4-13.64,6.92-18.89C48.42,14.22,48.96,13.79,49.52,13.38z"/>
						</g>
					</g>
					<g>
						<g>
							<path class="st9" d="M59.8,8.54c-1.97,4.82-5.11,13.61-6.27,23.02c-0.24,1.97-0.4,3.98-0.44,5.97l-0.77-0.02
								c0.04-1.96,0.19-3.93,0.42-5.86c1.11-9.22,4.11-17.85,6.11-22.85C59.17,8.71,59.49,8.62,59.8,8.54z"/>
						</g>
					</g>
					<g>
						<g>
							<path class="st9" d="M67.21,7.39c-0.62,4.39-1.76,13.43-2.2,23.28c-0.1,2.26-0.17,4.56-0.18,6.86l-0.77-0.01
								c0.02-2.29,0.08-4.57,0.18-6.82c0.44-9.78,1.56-18.78,2.19-23.25h0C66.68,7.42,66.94,7.41,67.21,7.39z"/>
						</g>
					</g>
					<g>
						<g>
							<path class="st9" d="M76.54,37.52l-0.77,0.01c-0.02-2.34-0.08-4.68-0.19-6.98c-0.45-9.76-1.57-18.71-2.19-23.1
								c0.27,0.02,0.53,0.04,0.79,0.07c0.62,4.47,1.73,13.37,2.17,23.05C76.46,32.85,76.52,35.19,76.54,37.52z"/>
						</g>
					</g>
					<g>
						<g>
							<path class="st9" d="M88.26,37.51l-0.77,0.02c-0.04-2.15-0.22-4.29-0.49-6.41c-1.18-9.15-4.2-17.65-6.14-22.42
								c0.32,0.09,0.63,0.18,0.94,0.27h0c1.97,4.93,4.85,13.28,5.99,22.22C88.04,33.28,88.21,35.4,88.26,37.51z"/>
						</g>
					</g>
					<g>
						<g>
							<path class="st9" d="M99.97,37.51l-0.77,0.02c-0.05-1.68-0.25-3.37-0.55-5.04c-1.27-7.04-4.48-13.79-7.43-18.86
								c0.56,0.41,1.09,0.83,1.6,1.26c0,0,0,0,0,0c2.74,4.98,5.51,11.24,6.64,17.73C99.74,34.25,99.92,35.88,99.97,37.51z"/>
						</g>
					</g>
				</g>
				<g>
					<path class="st9" d="M35.11,34.46c0,0-1.83,3.9,0.34,9.62c0,0,21.88-13.09,69.16-0.85c0,0,2.96-3.35,0-9.4
						C104.61,33.83,68.12,17.82,35.11,34.46z"/>
				</g>
			</g>
			<g>
				<g>
					<path class="st5" d="M71.04,72.65c-0.93,0-1.95-0.24-3.08-0.73c-0.32-0.14-0.5-0.47-0.46-0.81l1.57-12.04
						c0.06-0.42,0.44-0.72,0.87-0.67c0.42,0.06,0.72,0.44,0.67,0.87l-1.49,11.45c1.54,0.56,2.73,0.51,3.71-0.15
						c0.35-0.24,0.83-0.15,1.07,0.21c0.24,0.35,0.14,0.83-0.21,1.07C72.89,72.39,72.01,72.65,71.04,72.65z"/>
				</g>
			</g>
			<g>
				<g>
					<path class="st5" d="M69.61,80.6c-4.43,0-7.79-1.83-7.84-1.86c-0.37-0.21-0.51-0.68-0.3-1.05c0.21-0.37,0.68-0.51,1.05-0.3
						c0.37,0.21,8.93,4.82,16.34-2.03c0.31-0.29,0.8-0.27,1.09,0.04c0.29,0.31,0.27,0.8-0.04,1.09
						C76.47,79.66,72.76,80.6,69.61,80.6z"/>
				</g>
			</g>
			<g>
				<g>
					<path class="st5" d="M70.86,85.02c-1.75,0-3.15-0.43-3.25-0.46c-0.41-0.13-0.63-0.56-0.51-0.97c0.13-0.41,0.56-0.63,0.97-0.51
						l0,0c0.03,0.01,3.46,1.05,5.87-0.32c0.37-0.21,0.84-0.08,1.05,0.29c0.21,0.37,0.08,0.84-0.29,1.05
						C73.47,84.81,72.08,85.02,70.86,85.02z"/>
				</g>
			</g>
			<g>
				<g>
					<path class="st4" d="M54.54,50.67c1.66-0.89,4.09-2,6.46-2.34c1.27-0.19,2.07-1.46,1.63-2.67l-0.09-0.24
						c-0.31-0.87-1.18-1.42-2.1-1.32c-2.11,0.22-5.84,0.96-8.28,3.39c-0.53,0.53-0.71,1.31-0.49,2.02l0,0
						C52.05,50.7,53.43,51.27,54.54,50.67z"/>
				</g>
			</g>
			<g>
				<g>
					<path class="st4" d="M86.53,50.67c-1.66-0.89-4.09-2-6.46-2.34c-1.27-0.19-2.07-1.46-1.63-2.67l0.09-0.24
						c0.31-0.87,1.18-1.42,2.1-1.32c2.11,0.22,5.84,0.96,8.28,3.39c0.53,0.53,0.71,1.31,0.49,2.02l0,0
						C89.01,50.7,87.63,51.27,86.53,50.67z"/>
				</g>
			</g>
			<g class="st6">
				<g>
					<path class="st5" d="M60.2,64.57c0,1.9-3.5,3.43-7.82,3.43c-4.32,0-7.82-1.54-7.82-3.43c0-1.9,3.5-3.43,7.82-3.43
						C56.7,61.14,60.2,62.67,60.2,64.57z"/>
				</g>
			</g>
			<g class="st6">
				<g>
					<path class="st5" d="M96.98,64.57c0,1.9-3.5,3.43-7.82,3.43c-4.32,0-7.82-1.54-7.82-3.43c0-1.9,3.5-3.43,7.82-3.43
						C93.48,61.14,96.98,62.67,96.98,64.57z"/>
				</g>
			</g>
			<g>
				<g>
					<g>
						<g>
							<g>
								<g>
									<g>
										<path class="st4" d="M60.75,56.57c0.04,2.09-0.74,3.81-1.72,3.82c-0.99,0.02-1.82-1.67-1.86-3.76
											c-0.04-2.09,0.74-3.81,1.72-3.82C59.88,52.8,60.71,54.48,60.75,56.57z"/>
									</g>
								</g>
							</g>
						</g>
					</g>
				</g>
				<g>
					<g>
						<g>
							<g>
								<g>
									<g>
										<path class="st4" d="M79.46,56.57c-0.04,2.09,0.74,3.81,1.72,3.82c0.99,0.02,1.82-1.67,1.86-3.76
											c0.04-2.09-0.74-3.81-1.72-3.82C80.33,52.8,79.5,54.48,79.46,56.57z"/>
									</g>
								</g>
							</g>
						</g>
					</g>
				</g>
			</g>
		</g>
	</g>
</g>
</svg>
