<?xml version="1.0" encoding="utf-8"?>
<!-- Generator: Adobe Illustrator 24.2.0, SVG Export Plug-In . SVG Version: 6.00 Build 0)  -->
<svg version="1.1" xmlns="http://www.w3.org/2000/svg" xmlns:xlink="http://www.w3.org/1999/xlink" x="0px" y="0px"
	 viewBox="0 0 137.2 143.31" style="enable-background:new 0 0 137.2 143.31;" xml:space="preserve">
<style type="text/css">
	.st0{fill:#FFF7F1;}
	.st1{fill:#FF9A40;}
	.st2{fill:#E96D17;}
	.st3{fill:#FFB8A1;}
	.st4{fill:#3F2037;}
	.st5{fill:#FF8A8A;}
	.st6{opacity:0.5;}
	.st7{fill:#FFFFFF;}
	.st8{fill:#FF4F4E;}
	.st9{fill:#C42C31;}
	.st10{fill:#0075CF;}
	.st11{fill:#0056A8;}
	.st12{fill:#734669;}
</style>
<g id="BACKGROUND">
</g>
<g id="OBJECTS">
	<g>
		<g>
			<g>
				<path class="st8" d="M137.2,143.31H0c0,0,1.38-17.11,9.66-20.43c3.35-1.34,11.02-5.15,18.97-9.23c2.95-1.51,5.95-3.06,8.77-4.53
					c0.3-0.15,0.6-0.31,0.89-0.46c2.32-1.21,4.5-2.35,6.44-3.37c4.26-2.24,7.31-3.86,7.89-4.17c0.07-0.03,0.1-0.05,0.1-0.05
					l1.05,0.24c1.31,0.29,2.63,0.55,3.95,0.75c1.31,0.21,2.62,0.38,3.93,0.51c7.24,0.71,14.57,0.22,21.68-1.49
					c0.01,0,0.02,0,0.04-0.01c0,0,3.22,1.66,7.96,4.07c1.97,1,4.2,2.14,6.57,3.34c0.3,0.15,0.6,0.3,0.9,0.46
					c1.16,0.58,2.35,1.18,3.55,1.79c1.28,0.64,2.58,1.3,3.88,1.95c8.85,4.43,17.7,8.76,21.31,10.2
					C135.82,126.19,137.2,143.31,137.2,143.31z"/>
			</g>
		</g>
		<g>
			<g>
				<path class="st9" d="M98.8,108.94c-0.47,1.37-1.01,2.78-1.63,4.17c-2.46,5.53-5.68,9.94-9.58,13.1
					c-4.89,3.97-10.85,5.98-17.72,5.98c-14.35,0-23.2-8.41-28.1-15.46c-1.83-2.64-3.26-5.28-4.35-7.63c0.3-0.15,0.6-0.31,0.89-0.46
					c1.07,2.31,2.49,4.93,4.3,7.54c6.93,9.96,16.11,15,27.27,15c12.06,0,20.93-6.22,26.39-18.49c0.63-1.42,1.17-2.84,1.64-4.22
					C98.2,108.63,98.5,108.79,98.8,108.94z"/>
			</g>
		</g>
		<g>
			<path class="st0" d="M91.33,105.14c-1.73,7.43-8.27,18.74-22.73,18.74c-15.87,0-21.83-12.84-23.86-18.6
				c4.26-2.24,7.31-3.86,7.89-4.17c0.07-0.03,0.1-0.05,0.1-0.05l1.05,0.24c1.31,0.29,2.63,0.55,3.95,0.75
				c1.31,0.21,2.62,0.38,3.93,0.51c7.24,0.71,14.57,0.22,21.68-1.49c0.01,0,0.02,0,0.04-0.01
				C83.37,101.07,86.59,102.73,91.33,105.14z"/>
		</g>
		<g>
			<g>
				<g>
					<g>
						<g>
							<g>
								<g>
									<path class="st3" d="M84.07,104.56c0,0-2.69,8.46-15.05,8.46c-14.42,0-17.82-7.69-17.82-7.69c1.25-3.32,2.11-6.4,2.69-9.15
										h0c1.07-5.04,1.22-8.99,1.15-11.42l25.33-1c0.23,2.15,0.62,4.67,1.05,7.21C82.58,97.72,84.07,104.56,84.07,104.56z"/>
								</g>
							</g>
						</g>
					</g>
				</g>
				<g>
					<g>
						<g>
							<g>
								<g>
									<path class="st4" d="M81.43,90.98c-3.93,2.73-12.51,6.79-27.53,5.21c1.07-5.04,1.22-8.99,1.15-11.42l25.33-1
										C80.62,85.91,81,88.44,81.43,90.98z"/>
								</g>
							</g>
						</g>
					</g>
				</g>
			</g>
			<g>
				<g>
					<g>
						<g>
							<g>
								<g>
									<g>
										<path class="st3" d="M45.38,51.73c0,0-7.84-10.67-13.94-4.36c-6.1,6.32,5.66,28.31,16.33,23.52L45.38,51.73z"/>
									</g>
								</g>
							</g>
						</g>
					</g>
					<g>
						<g>
							<g>
								<g>
									<g>
										<path class="st5" d="M41.64,64.34c-0.27,0-0.5-0.2-0.54-0.47c-1.03-7.42-6.92-11.97-6.98-12.01
											c-0.24-0.18-0.28-0.52-0.1-0.76c0.18-0.24,0.52-0.28,0.76-0.1c0.26,0.19,6.31,4.87,7.4,12.72
											c0.04,0.3-0.17,0.57-0.46,0.61C41.69,64.34,41.66,64.34,41.64,64.34z"/>
									</g>
								</g>
							</g>
						</g>
					</g>
					<g>
						<g>
							<g>
								<g>
									<g>
										<path class="st5" d="M40,59.01c-0.17,0-0.34-0.08-0.45-0.24c-0.79-1.16-3.14-1.28-3.98-1.23
											c-0.3,0.02-0.56-0.21-0.57-0.51c-0.02-0.3,0.21-0.56,0.51-0.57c0.15-0.01,3.65-0.2,4.94,1.7c0.17,0.25,0.1,0.58-0.15,0.75
											C40.21,58.98,40.1,59.01,40,59.01z"/>
									</g>
								</g>
							</g>
						</g>
					</g>
				</g>
			</g>
			<g>
				<g>
					<g>
						<g>
							<g>
								<g>
									<g>
										<path class="st3" d="M93.14,51.73c0,0,7.84-10.67,13.94-4.36c6.1,6.32-5.66,28.31-16.33,23.52L93.14,51.73z"/>
									</g>
								</g>
							</g>
						</g>
					</g>
					<g>
						<g>
							<g>
								<g>
									<g>
										<path class="st5" d="M96.88,64.34c-0.02,0-0.05,0-0.08-0.01c-0.3-0.04-0.5-0.31-0.46-0.61c1.09-7.85,7.14-12.53,7.4-12.72
											c0.24-0.18,0.58-0.13,0.76,0.1c0.18,0.24,0.13,0.58-0.1,0.76c-0.06,0.04-5.96,4.61-6.98,12.01
											C97.38,64.14,97.15,64.34,96.88,64.34z"/>
									</g>
								</g>
							</g>
						</g>
					</g>
					<g>
						<g>
							<g>
								<g>
									<g>
										<path class="st5" d="M98.52,59.01c-0.1,0-0.21-0.03-0.3-0.09c-0.25-0.17-0.31-0.5-0.15-0.75c1.29-1.91,4.79-1.71,4.94-1.7
											c0.3,0.02,0.52,0.28,0.51,0.57c-0.02,0.3-0.28,0.53-0.57,0.51c-0.84-0.05-3.19,0.07-3.98,1.23
											C98.87,58.93,98.7,59.01,98.52,59.01z"/>
									</g>
								</g>
							</g>
						</g>
					</g>
				</g>
			</g>
			<g>
				<g>
					<g>
						<g>
							<g>
								<path class="st3" d="M74.27,18.63C51.92,18.62,38.04,30.2,40.54,56.78c1.49,15.86,9.65,35.49,28.47,35.94
									c19.62,0.46,27.49-20.9,30.29-37.11c2.56-14.83-4.98-31.27-19.28-35.96C79.03,19.32,75.52,18.64,74.27,18.63z"/>
							</g>
							<g>
								<path class="st4" d="M40.28,51.93c0,0-2.6-25.2-2.68-30.78C37.42,7.57,51.12-0.04,71.23,0
									c16.22,0.03,18.21,7.13,19.52,12.88c0,0,11.99,0.31,13.82,8.67c1.83,8.36-5.78,33.6-5.78,33.6s-2.55-5.81-4.38-14.17
									c-1.83-8.36-4.21-13.48-9.43-13.58c-5.22-0.1-11.76,0.16-18.81,4.34c-7.05,4.18-14.11,4.7-19.07,1.04
									C47.09,32.78,45.77,45.4,40.28,51.93z"/>
							</g>
						</g>
					</g>
				</g>
			</g>
			<g class="st6">
				<g>
					<path class="st5" d="M59.74,62.45c0,1.9-3.5,3.43-7.82,3.43c-4.32,0-7.82-1.54-7.82-3.43c0-1.9,3.5-3.43,7.82-3.43
						C56.24,59.01,59.74,60.55,59.74,62.45z"/>
				</g>
			</g>
			<g class="st6">
				<g>
					<path class="st5" d="M96.52,62.45c0,1.9-3.5,3.43-7.82,3.43s-7.82-1.54-7.82-3.43c0-1.9,3.5-3.43,7.82-3.43
						S96.52,60.55,96.52,62.45z"/>
				</g>
			</g>
			<g>
				<path class="st4" d="M99.45,51.93c0,0-0.17,12.27-3.82,27.7c-5.86,24.73-25.96,21.44-25.96,21.44s-19.71,3.3-25.57-21.44
					c-3.65-15.43-3.82-27.7-3.82-27.7l3.21-5.36c0,0,2.25,21.31,10.41,25c0,0,3.63-5.51,15.78-0.36
					c12.15-5.15,16.17,0.36,16.17,0.36c8.16-3.69,10.41-25,10.41-25L99.45,51.93z"/>
			</g>
			<g>
				<g>
					<path class="st5" d="M70.58,69.12c-0.93,0-1.95-0.24-3.08-0.73c-0.32-0.14-0.5-0.47-0.46-0.81l1.57-12.04
						c0.06-0.42,0.44-0.72,0.87-0.67c0.42,0.06,0.72,0.44,0.67,0.87l-1.49,11.45c1.54,0.56,2.73,0.51,3.71-0.15
						c0.35-0.24,0.83-0.15,1.07,0.21c0.24,0.35,0.15,0.83-0.21,1.07C72.43,68.85,71.55,69.12,70.58,69.12z"/>
				</g>
			</g>
			<g>
				<g>
					<path class="st12" d="M69.14,78.47c-4.43,0-7.79-1.83-7.84-1.86c-0.37-0.21-0.51-0.68-0.3-1.05c0.21-0.37,0.68-0.51,1.05-0.3
						c0.37,0.21,8.93,4.82,16.34-2.03c0.31-0.29,0.8-0.27,1.09,0.04c0.29,0.31,0.27,0.8-0.04,1.09
						C76.01,77.54,72.3,78.47,69.14,78.47z"/>
				</g>
			</g>
			<g>
				<g>
					<path class="st12" d="M70.4,82.89c-1.75,0-3.15-0.43-3.25-0.46c-0.41-0.13-0.63-0.56-0.51-0.97c0.13-0.41,0.56-0.63,0.97-0.51
						l0,0c0.03,0.01,3.46,1.05,5.87-0.32c0.37-0.21,0.84-0.08,1.05,0.29c0.21,0.37,0.08,0.84-0.29,1.05
						C73.01,82.68,71.62,82.89,70.4,82.89z"/>
				</g>
			</g>
			<g>
				<g>
					<path class="st4" d="M54.08,48.55c1.66-0.89,4.09-2,6.46-2.34c1.27-0.19,2.07-1.46,1.63-2.67l-0.09-0.24
						c-0.31-0.87-1.18-1.42-2.1-1.32c-2.11,0.22-5.84,0.96-8.28,3.39c-0.53,0.53-0.71,1.31-0.49,2.02l0,0
						C51.59,48.58,52.97,49.14,54.08,48.55z"/>
				</g>
			</g>
			<g>
				<g>
					<path class="st4" d="M86.06,48.55c-1.66-0.89-4.09-2-6.46-2.34c-1.27-0.19-2.07-1.46-1.63-2.67l0.09-0.24
						c0.31-0.87,1.18-1.42,2.1-1.32c2.11,0.22,5.84,0.96,8.28,3.39c0.53,0.53,0.71,1.31,0.49,2.02l0,0
						C88.55,48.58,87.17,49.14,86.06,48.55z"/>
				</g>
			</g>
			<g>
				<g>
					<g>
						<g>
							<g>
								<g>
									<g>
										<path class="st4" d="M60.28,54.45c0.04,2.09-0.74,3.81-1.72,3.82c-0.99,0.02-1.82-1.67-1.86-3.76
											c-0.04-2.09,0.74-3.81,1.72-3.82C59.42,50.67,60.25,52.36,60.28,54.45z"/>
									</g>
								</g>
							</g>
						</g>
					</g>
				</g>
				<g>
					<g>
						<g>
							<g>
								<g>
									<g>
										<path class="st4" d="M79,54.45c-0.04,2.09,0.74,3.81,1.72,3.82c0.99,0.02,1.82-1.67,1.86-3.76
											c0.04-2.09-0.74-3.81-1.72-3.82C79.87,50.67,79.04,52.36,79,54.45z"/>
									</g>
								</g>
							</g>
						</g>
					</g>
				</g>
			</g>
		</g>
	</g>
</g>
</svg>
