<?xml version="1.0" encoding="utf-8"?>
<!-- Generator: Adobe Illustrator 24.2.0, SVG Export Plug-In . SVG Version: 6.00 Build 0)  -->
<svg version="1.1" xmlns="http://www.w3.org/2000/svg" xmlns:xlink="http://www.w3.org/1999/xlink" x="0px" y="0px"
	 viewBox="0 0 134.48 160.32" style="enable-background:new 0 0 134.48 160.32;" xml:space="preserve">
<style type="text/css">
	.st0{fill:#FFF7F1;}
	.st1{fill:#FF9A40;}
	.st2{fill:#E96D17;}
	.st3{fill:#FFB8A1;}
	.st4{fill:#3F2037;}
	.st5{fill:#FF8A8A;}
	.st6{opacity:0.5;}
	.st7{fill:#FFFFFF;}
	.st8{fill:#FF4F4E;}
	.st9{fill:#C42C31;}
	.st10{fill:#0075CF;}
	.st11{fill:#0056A8;}
	.st12{fill:#734669;}
</style>
<g id="BACKGROUND">
</g>
<g id="OBJECTS">
	<g>
		<g>
			<g>
				<path class="st4" d="M134.48,160.32H-2.72c0,0,0.12-1.45,0.48-3.58c0.19-1.07,0.43-2.31,0.76-3.62c0.47-1.9,1.12-3.97,1.98-5.9
					c0.48-1.07,1.02-2.11,1.64-3.06c1.26-1.92,2.83-3.48,4.8-4.27c1.71-0.69,4.56-2.02,8-3.71c0.48-0.23,0.97-0.47,1.46-0.72
					c0,0,0.01,0,0.01-0.01c0.95-0.47,1.92-0.96,2.93-1.46c1.15-0.58,2.34-1.18,3.54-1.79c5.73-2.91,11.88-6.11,16.88-8.73
					c0.79-0.41,1.55-0.81,2.27-1.19h0c0.48-0.25,0.94-0.49,1.38-0.72c0,0,0.01,0,0.01,0c3.96-2.09,6.58-3.48,6.58-3.48l1.05,0.23
					c9.75,2.18,19.88,2.11,29.59-0.23c0,0,2.71,1.39,6.8,3.49c0.59,0.3,1.21,0.62,1.85,0.94c0.27,0.14,0.55,0.28,0.83,0.42
					c0,0,0,0,0,0c2.84,1.45,6.11,3.1,9.49,4.81c3,1.51,6.1,3.06,9.07,4.53c1.26,0.62,2.49,1.23,3.69,1.82
					c5.42,2.65,10.06,4.85,12.43,5.8c1.95,0.78,3.51,2.32,4.77,4.23c0.63,0.96,1.19,2.01,1.67,3.11c0.86,1.94,1.5,4.01,1.98,5.91
					c0.32,1.29,0.56,2.51,0.75,3.56C134.36,158.85,134.48,160.32,134.48,160.32z"/>
			</g>
			<g>
				<g>
					<g>
						<path class="st12" d="M46.31,124.01c0,1.37-1.11,2.48-2.48,2.48c-1.37,0-2.48-1.11-2.48-2.48c0-0.67,0.27-1.28,0.7-1.72h0
							c0.48-0.25,0.94-0.49,1.38-0.72c0,0,0.01,0,0.01,0c0.13-0.02,0.26-0.03,0.4-0.03C45.2,121.52,46.31,122.64,46.31,124.01z"/>
					</g>
					<g>
						<path class="st12" d="M57.32,124.01c0,1.37-1.11,2.48-2.48,2.48s-2.48-1.11-2.48-2.48c0-1.37,1.11-2.48,2.48-2.48
							S57.32,122.64,57.32,124.01z"/>
					</g>
					<g>
						<path class="st12" d="M68.34,124.01c0,1.37-1.11,2.48-2.48,2.48c-1.37,0-2.48-1.11-2.48-2.48c0-1.37,1.11-2.48,2.48-2.48
							C67.23,121.53,68.34,122.64,68.34,124.01z"/>
					</g>
					<g>
						<path class="st12" d="M79.36,124.01c0,1.37-1.11,2.48-2.48,2.48c-1.37,0-2.48-1.11-2.48-2.48c0-1.37,1.11-2.48,2.48-2.48
							C78.25,121.53,79.36,122.64,79.36,124.01z"/>
					</g>
					<g>
						<path class="st12" d="M90.37,124.01c0,1.37-1.11,2.48-2.48,2.48c-1.37,0-2.48-1.11-2.48-2.48c0-1.22,0.88-2.23,2.04-2.44
							c0.59,0.3,1.21,0.62,1.85,0.94c0.27,0.14,0.55,0.28,0.83,0.42c0,0,0,0,0,0C90.29,123.26,90.37,123.62,90.37,124.01z"/>
					</g>
				</g>
				<g>
					<g>
						<path class="st12" d="M24.27,134.42c0,1.37-1.11,2.48-2.48,2.48c-1.37,0-2.48-1.11-2.48-2.48c0-0.15,0.01-0.29,0.04-0.44
							c1.15-0.58,2.34-1.18,3.54-1.79C23.71,132.61,24.27,133.45,24.27,134.42z"/>
					</g>
					<g>
						<path class="st12" d="M35.29,134.43c0,1.37-1.11,2.48-2.48,2.48c-1.37,0-2.48-1.11-2.48-2.48s1.11-2.48,2.48-2.48
							C34.18,131.95,35.29,133.06,35.29,134.43z"/>
					</g>
					<g>
						<path class="st12" d="M46.31,134.43c0,1.37-1.11,2.48-2.48,2.48c-1.37,0-2.48-1.11-2.48-2.48s1.11-2.48,2.48-2.48
							C45.2,131.95,46.31,133.06,46.31,134.43z"/>
					</g>
					<g>
						<path class="st12" d="M57.32,134.43c0,1.37-1.11,2.48-2.48,2.48s-2.48-1.11-2.48-2.48s1.11-2.48,2.48-2.48
							S57.32,133.06,57.32,134.43z"/>
					</g>
					<g>
						<path class="st12" d="M68.34,134.43c0,1.37-1.11,2.48-2.48,2.48c-1.37,0-2.48-1.11-2.48-2.48s1.11-2.48,2.48-2.48
							C67.23,131.95,68.34,133.06,68.34,134.43z"/>
					</g>
					<g>
						<path class="st12" d="M79.36,134.43c0,1.37-1.11,2.48-2.48,2.48c-1.37,0-2.48-1.11-2.48-2.48s1.11-2.48,2.48-2.48
							C78.25,131.95,79.36,133.06,79.36,134.43z"/>
					</g>
					<g>
						<path class="st12" d="M90.37,134.43c0,1.37-1.11,2.48-2.48,2.48c-1.37,0-2.48-1.11-2.48-2.48s1.11-2.48,2.48-2.48
							C89.26,131.95,90.37,133.06,90.37,134.43z"/>
					</g>
					<g>
						<path class="st12" d="M101.39,134.43c0,1.37-1.11,2.48-2.48,2.48c-1.37,0-2.48-1.11-2.48-2.48s1.11-2.48,2.48-2.48
							C100.28,131.95,101.39,133.06,101.39,134.43z"/>
					</g>
					<g>
						<path class="st12" d="M112.41,134.42c0,1.37-1.11,2.48-2.48,2.48c-1.37,0-2.48-1.11-2.48-2.48c0-0.92,0.5-1.72,1.25-2.15
							c1.26,0.62,2.49,1.23,3.69,1.82C112.4,134.2,112.41,134.31,112.41,134.42z"/>
					</g>
				</g>
				<g>
					<g>
						<path class="st12" d="M2.24,144.85c0,1.11-0.73,2.05-1.74,2.37c0.48-1.07,1.02-2.11,1.64-3.06
							C2.2,144.38,2.24,144.61,2.24,144.85z"/>
					</g>
					<g>
						<path class="st12" d="M13.26,144.85c0,1.37-1.11,2.48-2.48,2.48c-1.37,0-2.48-1.11-2.48-2.48c0-1.37,1.11-2.48,2.48-2.48
							C12.15,142.37,13.26,143.48,13.26,144.85z"/>
					</g>
					<g>
						<path class="st12" d="M24.27,144.85c0,1.37-1.11,2.48-2.48,2.48s-2.48-1.11-2.48-2.48c0-1.37,1.11-2.48,2.48-2.48
							S24.27,143.48,24.27,144.85z"/>
					</g>
					<g>
						<path class="st12" d="M35.29,144.85c0,1.37-1.11,2.48-2.48,2.48c-1.37,0-2.48-1.11-2.48-2.48c0-1.37,1.11-2.48,2.48-2.48
							C34.18,142.37,35.29,143.48,35.29,144.85z"/>
					</g>
					<g>
						<path class="st12" d="M46.31,144.85c0,1.37-1.11,2.48-2.48,2.48c-1.37,0-2.48-1.11-2.48-2.48c0-1.37,1.11-2.48,2.48-2.48
							C45.2,142.37,46.31,143.48,46.31,144.85z"/>
					</g>
					<g>
						<path class="st12" d="M57.32,144.85c0,1.37-1.11,2.48-2.48,2.48s-2.48-1.11-2.48-2.48c0-1.37,1.11-2.48,2.48-2.48
							S57.32,143.48,57.32,144.85z"/>
					</g>
					<g>
						<path class="st12" d="M68.34,144.85c0,1.37-1.11,2.48-2.48,2.48c-1.37,0-2.48-1.11-2.48-2.48c0-1.37,1.11-2.48,2.48-2.48
							C67.23,142.37,68.34,143.48,68.34,144.85z"/>
					</g>
					<g>
						<path class="st12" d="M79.36,144.85c0,1.37-1.11,2.48-2.48,2.48c-1.37,0-2.48-1.11-2.48-2.48c0-1.37,1.11-2.48,2.48-2.48
							C78.25,142.37,79.36,143.48,79.36,144.85z"/>
					</g>
					<g>
						<path class="st12" d="M90.37,144.85c0,1.37-1.11,2.48-2.48,2.48c-1.37,0-2.48-1.11-2.48-2.48c0-1.37,1.11-2.48,2.48-2.48
							C89.26,142.37,90.37,143.48,90.37,144.85z"/>
					</g>
					<g>
						<path class="st12" d="M101.39,144.85c0,1.37-1.11,2.48-2.48,2.48c-1.37,0-2.48-1.11-2.48-2.48c0-1.37,1.11-2.48,2.48-2.48
							C100.28,142.37,101.39,143.48,101.39,144.85z"/>
					</g>
					<g>
						<path class="st12" d="M112.41,144.85c0,1.37-1.11,2.48-2.48,2.48c-1.37,0-2.48-1.11-2.48-2.48c0-1.37,1.11-2.48,2.48-2.48
							C111.3,142.37,112.41,143.48,112.41,144.85z"/>
					</g>
					<g>
						<path class="st12" d="M123.43,144.85c0,1.37-1.11,2.48-2.48,2.48c-1.37,0-2.48-1.11-2.48-2.48c0-1.37,1.11-2.48,2.48-2.48
							C122.31,142.37,123.43,143.48,123.43,144.85z"/>
					</g>
					<g>
						<path class="st12" d="M131.26,147.23c-1.03-0.3-1.78-1.25-1.78-2.38c0-0.26,0.04-0.5,0.11-0.73
							C130.22,145.08,130.78,146.13,131.26,147.23z"/>
					</g>
				</g>
				<g>
					<g>
						<path class="st12" d="M2.24,155.27c0,1.37-1.11,2.48-2.48,2.48c-0.82,0-1.54-0.4-2-1.01c0.19-1.07,0.43-2.31,0.76-3.62
							c0.36-0.21,0.79-0.33,1.24-0.33C1.13,152.79,2.24,153.9,2.24,155.27z"/>
					</g>
					<g>
						<path class="st12" d="M13.26,155.27c0,1.37-1.11,2.48-2.48,2.48c-1.37,0-2.48-1.11-2.48-2.48s1.11-2.48,2.48-2.48
							C12.15,152.79,13.26,153.9,13.26,155.27z"/>
					</g>
					<g>
						<path class="st12" d="M24.27,155.27c0,1.37-1.11,2.48-2.48,2.48s-2.48-1.11-2.48-2.48s1.11-2.48,2.48-2.48
							S24.27,153.9,24.27,155.27z"/>
					</g>
					<g>
						<path class="st12" d="M35.29,155.27c0,1.37-1.11,2.48-2.48,2.48c-1.37,0-2.48-1.11-2.48-2.48s1.11-2.48,2.48-2.48
							C34.18,152.79,35.29,153.9,35.29,155.27z"/>
					</g>
					<g>
						<path class="st12" d="M46.31,155.27c0,1.37-1.11,2.48-2.48,2.48c-1.37,0-2.48-1.11-2.48-2.48s1.11-2.48,2.48-2.48
							C45.2,152.79,46.31,153.9,46.31,155.27z"/>
					</g>
					<g>
						<path class="st12" d="M57.32,155.27c0,1.37-1.11,2.48-2.48,2.48s-2.48-1.11-2.48-2.48s1.11-2.48,2.48-2.48
							S57.32,153.9,57.32,155.27z"/>
					</g>
					<g>
						<path class="st12" d="M68.34,155.27c0,1.37-1.11,2.48-2.48,2.48c-1.37,0-2.48-1.11-2.48-2.48s1.11-2.48,2.48-2.48
							C67.23,152.79,68.34,153.9,68.34,155.27z"/>
					</g>
					<g>
						<path class="st12" d="M79.36,155.27c0,1.37-1.11,2.48-2.48,2.48c-1.37,0-2.48-1.11-2.48-2.48s1.11-2.48,2.48-2.48
							C78.25,152.79,79.36,153.9,79.36,155.27z"/>
					</g>
					<g>
						<path class="st12" d="M90.37,155.27c0,1.37-1.11,2.48-2.48,2.48c-1.37,0-2.48-1.11-2.48-2.48s1.11-2.48,2.48-2.48
							C89.26,152.79,90.37,153.9,90.37,155.27z"/>
					</g>
					<g>
						<path class="st12" d="M101.39,155.27c0,1.37-1.11,2.48-2.48,2.48c-1.37,0-2.48-1.11-2.48-2.48s1.11-2.48,2.48-2.48
							C100.28,152.79,101.39,153.9,101.39,155.27z"/>
					</g>
					<g>
						<path class="st12" d="M112.41,155.27c0,1.37-1.11,2.48-2.48,2.48c-1.37,0-2.48-1.11-2.48-2.48s1.11-2.48,2.48-2.48
							C111.3,152.79,112.41,153.9,112.41,155.27z"/>
					</g>
					<g>
						<path class="st12" d="M123.43,155.27c0,1.37-1.11,2.48-2.48,2.48c-1.37,0-2.48-1.11-2.48-2.48s1.11-2.48,2.48-2.48
							C122.31,152.79,123.43,153.9,123.43,155.27z"/>
					</g>
					<g>
						<path class="st12" d="M133.99,156.7c-0.45,0.63-1.19,1.05-2.03,1.05c-1.37,0-2.48-1.11-2.48-2.48c0-1.37,1.11-2.48,2.48-2.48
							c0.47,0,0.9,0.13,1.28,0.35C133.56,154.43,133.8,155.65,133.99,156.7z"/>
					</g>
				</g>
			</g>
			<g>
				<path class="st3" d="M87.12,121.4c-2.47,5.67-4.95,11.34-7.44,17.01c-3.2,7.31-6.41,14.62-9.64,21.91H64.5
					c-4.23-7.28-8.55-14.5-12.81-21.76c-1.72-2.93-3.44-5.88-5.13-8.83c-1.44-2.52-2.83-5.06-4.15-7.64
					c4.53-2.38,7.59-4.01,7.59-4.01l1.05,0.23c9.75,2.18,19.88,2.11,29.59-0.23C80.65,118.08,83.21,119.4,87.12,121.4z"/>
			</g>
			<g>
				<path class="st0" d="M79.69,138.41c-3.2,7.31-6.41,14.62-9.64,21.91H64.5c-4.23-7.28-8.55-14.5-12.81-21.76
					C58.14,140.36,68.19,141.77,79.69,138.41z"/>
			</g>
		</g>
		<g>
			<g>
				<g>
					<g>
						<g>
							<g>
								<path class="st3" d="M81.34,121.57c0,0-2.69,8.46-15.05,8.46c-14.42,0-17.82-7.69-17.82-7.69c1.25-3.32,2.11-6.4,2.69-9.15
									h0c1.07-5.04,1.22-8.99,1.15-11.42l25.34-1c0.23,2.15,0.62,4.67,1.05,7.21C79.85,114.73,81.34,121.57,81.34,121.57z"/>
							</g>
							<g>
								<path class="st0" d="M66.46,133.94c-7.56,0-12.51-3.88-15.33-7.13c-3.04-3.51-4.28-6.97-4.34-7.12
									c-0.09-0.26,0.04-0.55,0.3-0.64c0.26-0.09,0.55,0.04,0.64,0.3c0.01,0.03,1.25,3.45,4.17,6.82c3.9,4.48,8.79,6.76,14.55,6.76
									c13.72,0,17.02-13.39,17.05-13.53c0.06-0.27,0.33-0.44,0.6-0.37c0.27,0.06,0.44,0.33,0.37,0.6
									c-0.03,0.15-0.87,3.62-3.5,7.14C78.54,130.05,74.04,133.94,66.46,133.94z"/>
							</g>
						</g>
					</g>
				</g>
				<g>
					<g>
						<g>
							<g>
								<path class="st4" d="M78.71,107.99c-3.93,2.73-12.51,6.79-27.53,5.21c1.07-5.04,1.22-8.99,1.15-11.42l25.34-1
									C77.9,102.92,78.28,105.45,78.71,107.99z"/>
							</g>
						</g>
					</g>
				</g>
			</g>
			<g>
				<g>
					<g>
						<g>
							<g>
								<g>
									<path class="st3" d="M42.66,68.74c0,0-7.84-10.67-13.94-4.36c-6.1,6.32,5.66,28.31,16.33,23.52L42.66,68.74z"/>
								</g>
							</g>
						</g>
					</g>
					<g>
						<circle class="st0" cx="36.05" cy="82.33" r="2.18"/>
					</g>
					<g>
						<g>
							<g>
								<g>
									<path class="st5" d="M39.4,81.35c-0.27,0-0.5-0.2-0.54-0.47c-1.03-7.42-6.92-11.97-6.98-12.01
										c-0.24-0.18-0.28-0.52-0.1-0.76c0.18-0.24,0.52-0.28,0.76-0.1c0.26,0.19,6.31,4.87,7.4,12.72c0.04,0.3-0.17,0.57-0.46,0.61
										C39.45,81.35,39.42,81.35,39.4,81.35z"/>
								</g>
							</g>
						</g>
					</g>
					<g>
						<g>
							<g>
								<g>
									<path class="st5" d="M37.76,76.02c-0.17,0-0.34-0.08-0.45-0.24c-0.79-1.16-3.14-1.28-3.98-1.23
										c-0.3,0.02-0.56-0.21-0.57-0.51c-0.02-0.3,0.21-0.56,0.51-0.57c0.15-0.01,3.65-0.2,4.94,1.71c0.17,0.25,0.1,0.58-0.15,0.75
										C37.97,75.99,37.86,76.02,37.76,76.02z"/>
								</g>
							</g>
						</g>
					</g>
				</g>
			</g>
			<g>
				<g>
					<g>
						<g>
							<g>
								<g>
									<path class="st3" d="M90.42,68.74c0,0,7.84-10.67,13.94-4.36c6.1,6.32-5.66,28.31-16.33,23.52L90.42,68.74z"/>
								</g>
							</g>
						</g>
					</g>
					<g>
						<circle class="st0" cx="96.43" cy="82.33" r="2.18"/>
					</g>
					<g>
						<g>
							<g>
								<g>
									<path class="st5" d="M93.58,81.35c-0.02,0-0.05,0-0.08-0.01c-0.3-0.04-0.5-0.31-0.46-0.61c1.09-7.85,7.14-12.53,7.4-12.72
										c0.24-0.18,0.58-0.13,0.76,0.1c0.18,0.24,0.13,0.58-0.1,0.76c-0.06,0.05-5.96,4.61-6.98,12.01
										C94.07,81.15,93.84,81.35,93.58,81.35z"/>
								</g>
							</g>
						</g>
					</g>
					<g>
						<g>
							<g>
								<g>
									<path class="st5" d="M95.22,76.02c-0.1,0-0.21-0.03-0.3-0.09c-0.25-0.17-0.31-0.5-0.15-0.75c1.29-1.91,4.79-1.71,4.94-1.7
										c0.3,0.02,0.52,0.28,0.51,0.57c-0.02,0.3-0.28,0.53-0.57,0.51c-0.84-0.05-3.19,0.07-3.98,1.23
										C95.56,75.94,95.39,76.02,95.22,76.02z"/>
								</g>
							</g>
						</g>
					</g>
				</g>
			</g>
			<g>
				<g>
					<g>
						<g>
							<path class="st3" d="M70.06,36.75C46.9,36.07,36.05,48.46,37.82,74.06c1.1,15.9,9.65,35.23,28.47,35.67
								c19.62,0.46,28.55-21.79,28.97-38.24C95.71,54.2,91.6,42.64,77.3,37.95C76.31,37.63,71.13,36.78,70.06,36.75z"/>
						</g>
					</g>
				</g>
			</g>
			<g>
				<g>
					<g>
						<path class="st8" d="M84.76,28.43c-0.13,0.32-0.28,0.65-0.43,0.98c-1.44,3.03-3.88,6.19-7.55,9.37H58.69
							c0,0-6.49-3.58-9.88-9.4c-0.18-0.31-0.35-0.62-0.51-0.94c-2.36-4.71-2.52-10.72,4.05-17.39
							C65.36-2.16,91.96,10.76,84.76,28.43z"/>
					</g>
				</g>
				<g>
					<path class="st9" d="M84.33,29.41c-1.44,3.03-3.88,6.19-7.55,9.37H58.69c0,0-6.49-3.58-9.88-9.4c2.12-1.29,9.7-3.88,17.23-2.07
						C66.05,27.31,75.92,24.82,84.33,29.41z"/>
				</g>
			</g>
			<g>
				<path class="st8" d="M41.83,61.6c0,0,24.63-6.37,24.63-19.23c0,0,5.66,17.75,24.73,19.23l4.1,3.09c0,0,2.19-1.77,3.87-2.24
					c0,0,4.93-39.06-32.76-33.84c0,0-11.71-2.62-21.35,4.05c-13.96,9.66-8.39,30.87-8.39,30.87L41.83,61.6z"/>
			</g>
			<g>
				<g>
					<path class="st5" d="M49.65,79.02c0,0.37-0.3,0.67-0.67,0.67s-0.67-0.3-0.67-0.67c0-0.37,0.3-0.67,0.67-0.67
						S49.65,78.65,49.65,79.02z"/>
				</g>
				<g>
					<path class="st5" d="M52.95,80.65c0,0.37-0.3,0.67-0.67,0.67c-0.37,0-0.67-0.3-0.67-0.67c0-0.37,0.3-0.67,0.67-0.67
						C52.64,79.98,52.95,80.28,52.95,80.65z"/>
				</g>
				<g>
					<path class="st5" d="M49.65,83c0,0.37-0.3,0.67-0.67,0.67S48.3,83.37,48.3,83s0.3-0.67,0.67-0.67S49.65,82.63,49.65,83z"/>
				</g>
				<g>
					<path class="st5" d="M54.83,83.67c0,0.37-0.3,0.67-0.67,0.67s-0.67-0.3-0.67-0.67c0-0.37,0.3-0.67,0.67-0.67
						S54.83,83.3,54.83,83.67z"/>
				</g>
				<g>
					<path class="st5" d="M58.28,83c0,0.37-0.3,0.67-0.67,0.67s-0.67-0.3-0.67-0.67s0.3-0.67,0.67-0.67S58.28,82.63,58.28,83z"/>
				</g>
				<g>
					<path class="st5" d="M56.71,79.7c0,0.37-0.3,0.67-0.67,0.67c-0.37,0-0.67-0.3-0.67-0.67c0-0.37,0.3-0.67,0.67-0.67
						C56.41,79.02,56.71,79.33,56.71,79.7z"/>
				</g>
			</g>
			<g>
				<g>
					<path class="st5" d="M84,79.02c0,0.37,0.3,0.67,0.67,0.67c0.37,0,0.67-0.3,0.67-0.67c0-0.37-0.3-0.67-0.67-0.67
						C84.3,78.35,84,78.65,84,79.02z"/>
				</g>
				<g>
					<path class="st5" d="M80.7,80.65c0,0.37,0.3,0.67,0.67,0.67c0.37,0,0.67-0.3,0.67-0.67c0-0.37-0.3-0.67-0.67-0.67
						C81.01,79.98,80.7,80.28,80.7,80.65z"/>
				</g>
				<g>
					<path class="st5" d="M84,83c0,0.37,0.3,0.67,0.67,0.67c0.37,0,0.67-0.3,0.67-0.67s-0.3-0.67-0.67-0.67
						C84.3,82.33,84,82.63,84,83z"/>
				</g>
				<g>
					<path class="st5" d="M78.82,83.67c0,0.37,0.3,0.67,0.67,0.67s0.67-0.3,0.67-0.67c0-0.37-0.3-0.67-0.67-0.67
						S78.82,83.3,78.82,83.67z"/>
				</g>
				<g>
					<path class="st5" d="M75.37,83c0,0.37,0.3,0.67,0.67,0.67c0.37,0,0.67-0.3,0.67-0.67s-0.3-0.67-0.67-0.67
						C75.67,82.33,75.37,82.63,75.37,83z"/>
				</g>
				<g>
					<path class="st5" d="M76.94,79.7c0,0.37,0.3,0.67,0.67,0.67s0.67-0.3,0.67-0.67c0-0.37-0.3-0.67-0.67-0.67
						S76.94,79.33,76.94,79.7z"/>
				</g>
			</g>
			<g>
				<g>
					<path class="st8" d="M38.74,78.61c0,0,4.64-9.79,3.09-17l-6.09-3.87C35.74,57.73,36.69,72.56,38.74,78.61z"/>
				</g>
				<g>
					<path class="st8" d="M94.28,78.61c0,0-4.64-9.79-3.09-17l5.07-1.48C96.26,60.13,97.03,72.51,94.28,78.61z"/>
				</g>
			</g>
			<g>
				<path class="st8" d="M47.29,66.93c0,0,1.25-3.1,5.51-5.75c5.37-3.35,9.24,2.41,9.24,2.41s-4.21-1.47-7.45-0.44
					C51.43,64.16,47.29,66.93,47.29,66.93z"/>
			</g>
			<g>
				<path class="st8" d="M86.87,66.93c0,0-1.25-3.1-5.51-5.75c-5.37-3.35-9.24,2.41-9.24,2.41s4.21-1.47,7.45-0.44
					C82.74,64.16,86.87,66.93,86.87,66.93z"/>
			</g>
			<g>
				<path class="st5" d="M67.85,87.52c-0.93,0-1.95-0.24-3.07-0.73c-0.31-0.13-0.49-0.45-0.45-0.78l1.57-12.04
					c0.05-0.41,0.43-0.7,0.84-0.65c0.41,0.05,0.7,0.43,0.65,0.84L65.9,85.62c1.55,0.57,2.75,0.52,3.74-0.14
					c0.34-0.23,0.81-0.14,1.04,0.2c0.23,0.34,0.14,0.81-0.2,1.04C69.7,87.25,68.82,87.52,67.85,87.52z"/>
			</g>
			<g>
				<path class="st5" d="M66.37,95.48c-0.66,0-1.28-0.04-1.85-0.11c-3.43-0.39-5.82-1.72-5.93-1.77c-0.36-0.2-0.49-0.66-0.29-1.02
					c0.2-0.36,0.66-0.49,1.02-0.29l0,0c0.36,0.2,8.94,4.83,16.37-2.04c0.3-0.28,0.78-0.26,1.06,0.04c0.28,0.3,0.26,0.78-0.04,1.06
					C73.17,94.63,69.37,95.48,66.37,95.48z"/>
			</g>
			<g>
				<path class="st5" d="M67.68,99.88c-1.74,0-3.14-0.43-3.24-0.46c-0.4-0.12-0.62-0.54-0.49-0.94c0.12-0.4,0.54-0.62,0.94-0.49
					c0.05,0.02,3.48,1.04,5.89-0.32c0.36-0.2,0.82-0.08,1.02,0.28c0.2,0.36,0.08,0.82-0.28,1.02
					C70.28,99.67,68.89,99.88,67.68,99.88z"/>
			</g>
			<g>
				<g>
					<g>
						<g>
							<g>
								<g>
									<path class="st4" d="M57.56,71.46c0.04,2.09-0.74,3.81-1.72,3.82c-0.99,0.02-1.82-1.67-1.86-3.76
										c-0.04-2.09,0.74-3.81,1.72-3.82C56.69,67.68,57.53,69.37,57.56,71.46z"/>
								</g>
							</g>
						</g>
					</g>
				</g>
				<g>
					<g>
						<g>
							<g>
								<g>
									<path class="st4" d="M76.28,71.46c-0.04,2.09,0.74,3.81,1.72,3.82c0.99,0.02,1.82-1.67,1.86-3.76
										c0.04-2.09-0.74-3.81-1.72-3.82C77.15,67.68,76.31,69.37,76.28,71.46z"/>
								</g>
							</g>
						</g>
					</g>
				</g>
			</g>
		</g>
		<g>
			<g>
				<path class="st7" d="M53.85,86.15c-6.37,0-11.56-5.19-11.56-11.56c0-6.37,5.19-11.56,11.56-11.56c6.37,0,11.56,5.19,11.56,11.56
					C65.41,80.96,60.22,86.15,53.85,86.15z M53.85,64.03c-5.82,0-10.56,4.74-10.56,10.56c0,5.82,4.74,10.56,10.56,10.56
					c5.82,0,10.56-4.74,10.56-10.56C64.41,68.77,59.67,64.03,53.85,64.03z"/>
			</g>
			<g>
				<path class="st7" d="M79.86,86.15c-6.37,0-11.56-5.19-11.56-11.56c0-6.37,5.19-11.56,11.56-11.56c6.37,0,11.56,5.19,11.56,11.56
					C91.42,80.96,86.23,86.15,79.86,86.15z M79.86,64.03c-5.82,0-10.56,4.74-10.56,10.56c0,5.82,4.74,10.56,10.56,10.56
					c5.82,0,10.56-4.74,10.56-10.56C90.42,68.77,85.68,64.03,79.86,64.03z"/>
			</g>
			<g>
				<path class="st7" d="M44.1,69.87c-0.17,0-0.33-0.08-0.43-0.24c-0.03-0.05-3.23-5.2-8.1-7.05c-0.26-0.1-0.39-0.39-0.29-0.64
					c0.1-0.26,0.39-0.39,0.64-0.29c5.2,1.97,8.47,7.24,8.6,7.46c0.14,0.24,0.07,0.54-0.17,0.69C44.28,69.84,44.19,69.87,44.1,69.87z
					"/>
			</g>
			<g>
				<path class="st7" d="M90.5,69.87c-0.09,0-0.19-0.03-0.27-0.08c-0.23-0.15-0.3-0.46-0.15-0.69c0.15-0.23,3.77-5.72,8.96-7.69
					c0.26-0.1,0.55,0.03,0.64,0.29c0.1,0.26-0.03,0.55-0.29,0.64c-4.88,1.85-8.44,7.25-8.48,7.3C90.82,69.79,90.66,69.87,90.5,69.87
					z"/>
			</g>
			<g>
				<path class="st7" d="M68.8,73.52c-0.25,0-0.47-0.19-0.5-0.45c-0.02-0.15-0.21-1.48-1.54-1.48c-1.32,0-1.45,1.31-1.46,1.46
					c-0.02,0.27-0.26,0.49-0.53,0.46c-0.27-0.02-0.48-0.25-0.46-0.53c0.05-0.83,0.64-2.39,2.46-2.39c1.81,0,2.45,1.55,2.54,2.38
					c0.03,0.27-0.17,0.52-0.45,0.55C68.83,73.52,68.82,73.52,68.8,73.52z"/>
			</g>
		</g>
	</g>
</g>
</svg>
