<?xml version="1.0" encoding="utf-8"?>
<!-- Generator: Adobe Illustrator 24.2.0, SVG Export Plug-In . SVG Version: 6.00 Build 0)  -->
<svg version="1.1" xmlns="http://www.w3.org/2000/svg" xmlns:xlink="http://www.w3.org/1999/xlink" x="0px" y="0px"
	 viewBox="0 0 137.2 143.31" style="enable-background:new 0 0 137.2 143.31;" xml:space="preserve">
<style type="text/css">
	.st0{fill:#FFF7F1;}
	.st1{fill:#FF9A40;}
	.st2{fill:#E96D17;}
	.st3{fill:#FFB8A1;}
	.st4{fill:#3F2037;}
	.st5{fill:#FF8A8A;}
	.st6{opacity:0.5;}
	.st7{fill:#FFFFFF;}
	.st8{fill:#FF4F4E;}
	.st9{fill:#C42C31;}
	.st10{fill:#0075CF;}
	.st11{fill:#0056A8;}
	.st12{fill:#734669;}
</style>
<g id="BACKGROUND">
</g>
<g id="OBJECTS">
	<g>
		<g>
			<path class="st4" d="M43.96,12.42c0,0-15.11,13.09-15.74,34.68c-0.62,21.58,11.11,30.86,0.22,40.13
				c-10.89,9.28-35.11,19.32-20.42,44.31h59.84V16.9L43.96,12.42z"/>
		</g>
		<g>
			<path class="st4" d="M91.17,12.42c0,0,15.11,13.09,15.74,34.68c0.62,21.58-11.11,30.86-0.22,40.13s35.11,19.32,20.42,44.31H67.27
				V16.9L91.17,12.42z"/>
		</g>
		<g>
			<g>
				<path class="st8" d="M135.87,142.32H-1.33c0,0,1.38-17.12,9.66-20.43c1.71-0.69,4.56-2.02,8.01-3.71
					c0.48-0.23,0.97-0.47,1.46-0.72c0,0,0.01,0,0.01-0.01c7.17-3.55,16.39-8.33,23.35-11.98c5.93-3.11,10.23-5.4,10.23-5.4
					l1.05,0.23c9.75,2.18,19.88,2.1,29.59-0.23c0,0,3.54,1.82,8.65,4.43c3.02,1.54,6.6,3.36,10.33,5.23
					c10.01,5.04,21.05,10.49,25.19,12.15C134.49,125.2,135.87,142.32,135.87,142.32z"/>
			</g>
			<g>
				<path class="st9" d="M29.81,142.32h-3.66c-2.84-6.25-7.58-17.03-9.81-24.14c0.48-0.23,0.97-0.47,1.46-0.72
					C19.45,121.67,24.84,135,29.81,142.32z"/>
			</g>
			<g>
				<path class="st9" d="M102.24,142.32h3.66c2.84-6.25,8.05-17.94,10.28-25.05c-0.48-0.23-0.83-0.4-1.33-0.65
					C113.21,120.83,107.21,135,102.24,142.32z"/>
			</g>
			<g>
				<path class="st8" d="M60.08,142.32H30.11c-5.04-7.51-9.72-18.4-12.3-24.87c-1.3-3.28-2.07-5.42-2.07-5.42
					c7.73-6.12,25.42-6.56,25.42-6.56C47.46,113.92,55.59,131.86,60.08,142.32z"/>
			</g>
			<g>
				<path class="st8" d="M72.26,142.32h29.97c5.04-7.51,9.72-18.4,12.3-24.87c1.3-3.28,2.07-5.42,2.07-5.42
					c-7.73-6.12-25.9-7.52-25.9-7.52C84.4,112.95,76.75,131.86,72.26,142.32z"/>
			</g>
			<g>
				<path class="st3" d="M90.69,104.51c-0.37,3.23-1.14,8.84-2.59,14.81c-2.26,9.29-6.16,19.48-12.73,23H64.55
					c-9.04-3.75-15.22-14.53-19.01-23.7c-2.34-5.67-3.76-10.73-4.38-13.14c5.93-3.11,10.23-5.4,10.23-5.4l1.05,0.23
					c9.75,2.18,19.88,2.1,29.59-0.23C82.04,100.08,85.58,101.91,90.69,104.51z"/>
			</g>
			<g>
				<path class="st0" d="M88.1,119.32c-2.26,9.29-6.16,19.48-12.73,23H64.55c-9.04-3.75-15.22-14.53-19.01-23.7
					c4.74,1.96,11.81,3.74,21.81,3.74C76.14,122.36,83.01,120.98,88.1,119.32z"/>
			</g>
		</g>
		<g>
			<g>
				<g>
					<g>
						<g>
							<g>
								<path class="st3" d="M82.74,103.58c0,0-2.69,8.46-15.05,8.46c-14.42,0-17.82-7.69-17.82-7.69c1.25-3.32,2.11-6.4,2.69-9.15
									h0c1.07-5.04,1.22-8.99,1.15-11.42l25.33-1c0.23,2.15,0.62,4.67,1.05,7.21C81.25,96.74,82.74,103.58,82.74,103.58z"/>
							</g>
							<g>
								<path class="st0" d="M67.86,115.95c-7.56,0-12.51-3.88-15.33-7.13c-3.04-3.51-4.28-6.97-4.34-7.12
									c-0.09-0.26,0.04-0.55,0.3-0.64c0.26-0.09,0.55,0.04,0.64,0.3c0.01,0.03,1.25,3.45,4.17,6.82c3.9,4.48,8.79,6.76,14.55,6.76
									c5.74,0,10.35-2.26,13.7-6.73c2.52-3.36,3.34-6.77,3.35-6.8c0.06-0.27,0.33-0.43,0.6-0.37c0.27,0.06,0.44,0.33,0.37,0.6
									c-0.03,0.15-0.87,3.62-3.5,7.14C79.94,112.05,75.44,115.95,67.86,115.95z"/>
							</g>
						</g>
					</g>
				</g>
				<g>
					<g>
						<g>
							<g>
								<path class="st4" d="M80.1,89.99c-3.93,2.73-12.51,6.79-27.53,5.21c1.07-5.04,1.22-8.99,1.15-11.42l25.33-1
									C79.29,84.92,79.67,87.45,80.1,89.99z"/>
							</g>
						</g>
					</g>
				</g>
			</g>
			<g>
				<g>
					<g>
						<g>
							<g>
								<g>
									<path class="st3" d="M44.05,50.74c0,0-7.84-10.67-13.94-4.36c-6.1,6.32,5.66,28.31,16.33,23.52L44.05,50.74z"/>
								</g>
							</g>
						</g>
					</g>
					<g>
						<g>
							<g>
								<g>
									<path class="st5" d="M40.79,63.35c-0.27,0-0.5-0.2-0.54-0.47c-1.03-7.42-6.92-11.97-6.98-12.01
										c-0.24-0.18-0.28-0.52-0.1-0.76s0.52-0.28,0.76-0.1c0.26,0.19,6.31,4.87,7.4,12.72c0.04,0.3-0.17,0.57-0.46,0.61
										C40.84,63.35,40.82,63.35,40.79,63.35z"/>
								</g>
							</g>
						</g>
					</g>
					<g>
						<g>
							<g>
								<g>
									<path class="st5" d="M39.15,58.03c-0.17,0-0.34-0.08-0.45-0.24c-0.79-1.16-3.14-1.28-3.98-1.23
										c-0.3,0.02-0.56-0.21-0.57-0.51c-0.02-0.3,0.21-0.56,0.51-0.57c0.15-0.01,3.65-0.2,4.94,1.7c0.17,0.25,0.1,0.58-0.15,0.75
										C39.36,58,39.26,58.03,39.15,58.03z"/>
								</g>
							</g>
						</g>
					</g>
				</g>
				<g>
					<g>
						<g>
							<g>
								<g>
									<path class="st0" d="M41.6,70.39c-0.15-0.02-0.3-0.07-0.46-0.11c-0.72,0.29-1.55,0.25-2.14-0.16
										c-1.81-1.27-0.23-4.33-0.21-4.38c0.15-0.28,0.04-0.63-0.24-0.78c-0.28-0.15-0.63-0.04-0.78,0.24
										c-0.09,0.16-2.07,4,0.57,5.86c0.53,0.38,1.19,0.56,1.87,0.56c0.66,0,1.33-0.18,1.91-0.54c0.23-0.15,0.43-0.32,0.61-0.51
										C42.34,70.52,41.98,70.45,41.6,70.39z"/>
								</g>
							</g>
						</g>
					</g>
				</g>
			</g>
			<g>
				<g>
					<g>
						<g>
							<g>
								<g>
									<path class="st3" d="M91.81,50.74c0,0,7.84-10.67,13.94-4.36c6.1,6.32-5.66,28.31-16.33,23.52L91.81,50.74z"/>
								</g>
							</g>
						</g>
					</g>
					<g>
						<g>
							<g>
								<g>
									<path class="st5" d="M94.97,63.35c-0.02,0-0.05,0-0.08-0.01c-0.3-0.04-0.5-0.31-0.46-0.61c1.09-7.85,7.14-12.53,7.4-12.72
										c0.24-0.18,0.58-0.13,0.76,0.1c0.18,0.24,0.13,0.58-0.1,0.76c-0.06,0.04-5.96,4.61-6.98,12.01
										C95.47,63.16,95.24,63.35,94.97,63.35z"/>
								</g>
							</g>
						</g>
					</g>
					<g>
						<g>
							<g>
								<g>
									<path class="st5" d="M96.61,58.03c-0.1,0-0.21-0.03-0.3-0.09c-0.25-0.17-0.31-0.5-0.14-0.75c1.29-1.91,4.79-1.71,4.94-1.7
										c0.3,0.02,0.52,0.28,0.51,0.57c-0.02,0.3-0.28,0.53-0.57,0.51c-0.84-0.05-3.19,0.07-3.98,1.23
										C96.96,57.94,96.78,58.03,96.61,58.03z"/>
								</g>
							</g>
						</g>
					</g>
				</g>
				<g>
					<g>
						<g>
							<g>
								<g>
									<path class="st0" d="M94.27,70.39c0.15-0.02,0.3-0.07,0.46-0.11c0.72,0.29,1.55,0.25,2.14-0.16
										c1.81-1.27,0.23-4.33,0.21-4.38c-0.15-0.28-0.04-0.63,0.24-0.78c0.28-0.15,0.63-0.04,0.78,0.24c0.09,0.16,2.07,4-0.57,5.86
										c-0.53,0.38-1.19,0.56-1.87,0.56c-0.66,0-1.33-0.18-1.91-0.54c-0.23-0.15-0.43-0.32-0.61-0.51
										C93.53,70.52,93.89,70.45,94.27,70.39z"/>
								</g>
							</g>
						</g>
					</g>
				</g>
			</g>
			<g>
				<g>
					<g>
						<g>
							<path class="st3" d="M71.46,18.75c-23.17-0.68-34.02,11.72-32.25,37.31c1.1,15.9,9.65,35.23,28.47,35.67
								C87.3,92.19,96.23,69.94,96.66,53.5C97.1,36.21,93,24.64,78.69,19.95C77.7,19.63,72.52,18.78,71.46,18.75z"/>
						</g>
					</g>
				</g>
			</g>
			<g>
				<g>
					<path class="st5" d="M51.05,61.03c0,0.37-0.3,0.67-0.67,0.67c-0.37,0-0.67-0.3-0.67-0.67s0.3-0.67,0.67-0.67
						C50.74,60.35,51.05,60.66,51.05,61.03z"/>
				</g>
				<g>
					<path class="st5" d="M54.34,62.66c0,0.37-0.3,0.67-0.67,0.67s-0.67-0.3-0.67-0.67s0.3-0.67,0.67-0.67S54.34,62.28,54.34,62.66z
						"/>
				</g>
				<g>
					<path class="st5" d="M51.05,65c0,0.37-0.3,0.67-0.67,0.67c-0.37,0-0.67-0.3-0.67-0.67c0-0.37,0.3-0.67,0.67-0.67
						C50.74,64.33,51.05,64.63,51.05,65z"/>
				</g>
				<g>
					<path class="st5" d="M56.23,65.68c0,0.37-0.3,0.67-0.67,0.67c-0.37,0-0.67-0.3-0.67-0.67c0-0.37,0.3-0.67,0.67-0.67
						C55.92,65,56.23,65.31,56.23,65.68z"/>
				</g>
				<g>
					<path class="st5" d="M59.68,65c0,0.37-0.3,0.67-0.67,0.67s-0.67-0.3-0.67-0.67c0-0.37,0.3-0.67,0.67-0.67S59.68,64.63,59.68,65
						z"/>
				</g>
				<g>
					<path class="st5" d="M58.11,61.7c0,0.37-0.3,0.67-0.67,0.67s-0.67-0.3-0.67-0.67s0.3-0.67,0.67-0.67S58.11,61.33,58.11,61.7z"
						/>
				</g>
			</g>
			<g>
				<g>
					<path class="st5" d="M85.39,61.03c0,0.37,0.3,0.67,0.67,0.67c0.37,0,0.67-0.3,0.67-0.67s-0.3-0.67-0.67-0.67
						C85.7,60.35,85.39,60.66,85.39,61.03z"/>
				</g>
				<g>
					<path class="st5" d="M82.1,62.66c0,0.37,0.3,0.67,0.67,0.67c0.37,0,0.67-0.3,0.67-0.67s-0.3-0.67-0.67-0.67
						C82.4,61.98,82.1,62.28,82.1,62.66z"/>
				</g>
				<g>
					<path class="st5" d="M85.39,65c0,0.37,0.3,0.67,0.67,0.67c0.37,0,0.67-0.3,0.67-0.67c0-0.37-0.3-0.67-0.67-0.67
						C85.7,64.33,85.39,64.63,85.39,65z"/>
				</g>
				<g>
					<path class="st5" d="M80.21,65.68c0,0.37,0.3,0.67,0.67,0.67c0.37,0,0.67-0.3,0.67-0.67c0-0.37-0.3-0.67-0.67-0.67
						C80.52,65,80.21,65.31,80.21,65.68z"/>
				</g>
				<g>
					<path class="st5" d="M76.76,65c0,0.37,0.3,0.67,0.67,0.67c0.37,0,0.67-0.3,0.67-0.67c0-0.37-0.3-0.67-0.67-0.67
						C77.06,64.33,76.76,64.63,76.76,65z"/>
				</g>
				<g>
					<path class="st5" d="M78.33,61.7c0,0.37,0.3,0.67,0.67,0.67c0.37,0,0.67-0.3,0.67-0.67s-0.3-0.67-0.67-0.67
						C78.63,61.03,78.33,61.33,78.33,61.7z"/>
				</g>
			</g>
			<g>
				<g>
					<path class="st4" d="M40.13,60.61c0,0,4.64-9.79,3.09-17l-5.07-1.48C38.16,42.13,37.39,54.51,40.13,60.61z"/>
				</g>
				<g>
					<path class="st4" d="M95.68,60.61c0,0-4.64-9.79-3.09-17l5.07-1.48C97.65,42.13,98.43,54.51,95.68,60.61z"/>
				</g>
			</g>
			<g>
				<path class="st4" d="M43.96,12.42c-5.62,5.55-10,14.64-10.29,20.19c-0.3,5.62,1.14,11.21,5.36,13.35
					c13.18,6.7,40.44-18.5,40.44-18.5s9.62,19.55,17.19,18.63c7.58-0.92,10.8-22.97-7.24-35.3C71.41-1.52,52.57,3.92,43.96,12.42z"
					/>
			</g>
			<g>
				<path class="st4" d="M48.69,48.93c0,0,1.25-3.1,5.51-5.75c5.37-3.35,9.24,2.41,9.24,2.41s-4.21-1.47-7.45-0.44
					C52.82,46.16,48.69,48.93,48.69,48.93z"/>
			</g>
			<g>
				<path class="st4" d="M88.27,48.93c0,0-1.25-3.1-5.51-5.75c-5.37-3.35-9.24,2.41-9.24,2.41s4.21-1.47,7.45-0.44
					C84.14,46.16,88.27,48.93,88.27,48.93z"/>
			</g>
			<g>
				<path class="st5" d="M69.25,69.52c-0.93,0-1.95-0.24-3.07-0.73c-0.31-0.13-0.49-0.45-0.45-0.78l1.57-12.04
					c0.05-0.41,0.43-0.7,0.84-0.65c0.41,0.05,0.7,0.43,0.65,0.84L67.3,67.63c1.55,0.57,2.75,0.52,3.74-0.14
					c0.34-0.23,0.81-0.14,1.04,0.2c0.23,0.34,0.14,0.81-0.2,1.04C71.09,69.26,70.22,69.52,69.25,69.52z"/>
			</g>
			<g>
				<path class="st5" d="M67.76,77.49c-0.66,0-1.28-0.04-1.85-0.11c-3.43-0.39-5.82-1.72-5.93-1.77c-0.36-0.2-0.49-0.66-0.29-1.02
					c0.2-0.36,0.66-0.49,1.02-0.29l0,0c0.36,0.2,8.94,4.83,16.37-2.04c0.3-0.28,0.78-0.26,1.06,0.04c0.28,0.3,0.26,0.78-0.04,1.06
					C74.57,76.63,70.77,77.49,67.76,77.49z"/>
			</g>
			<g>
				<path class="st5" d="M69.07,81.88c-1.75,0-3.14-0.43-3.24-0.46c-0.4-0.12-0.62-0.54-0.49-0.94c0.12-0.4,0.54-0.62,0.94-0.49
					c0.05,0.02,3.48,1.04,5.89-0.32c0.36-0.2,0.82-0.08,1.02,0.28c0.2,0.36,0.08,0.82-0.28,1.02
					C71.67,81.68,70.29,81.88,69.07,81.88z"/>
			</g>
			<g>
				<g>
					<g>
						<g>
							<g>
								<g>
									<path class="st4" d="M58.96,53.47c0.04,2.09-0.74,3.81-1.72,3.82c-0.99,0.02-1.82-1.67-1.86-3.76
										c-0.04-2.09,0.74-3.81,1.72-3.82C58.09,49.69,58.92,51.37,58.96,53.47z"/>
								</g>
							</g>
						</g>
					</g>
				</g>
				<g>
					<g>
						<g>
							<g>
								<g>
									<path class="st4" d="M77.67,53.47c-0.04,2.09,0.74,3.81,1.72,3.82c0.99,0.02,1.82-1.67,1.86-3.76
										c0.04-2.09-0.74-3.81-1.72-3.82C78.54,49.69,77.71,51.37,77.67,53.47z"/>
								</g>
							</g>
						</g>
					</g>
				</g>
			</g>
		</g>
	</g>
</g>
</svg>
