<?xml version="1.0" encoding="utf-8"?>
<!-- Generator: Adobe Illustrator 24.2.0, SVG Export Plug-In . SVG Version: 6.00 Build 0)  -->
<svg version="1.1" xmlns="http://www.w3.org/2000/svg" xmlns:xlink="http://www.w3.org/1999/xlink" x="0px" y="0px"
	 viewBox="0 0 156.8 163.78" style="enable-background:new 0 0 156.8 163.78;" xml:space="preserve">
<style type="text/css">
	.st0{fill:#FFF7F1;}
	.st1{fill:#FF9A40;}
	.st2{fill:#E96D17;}
	.st3{fill:#FFB8A1;}
	.st4{fill:#3F2037;}
	.st5{fill:#FF8A8A;}
	.st6{opacity:0.5;}
	.st7{fill:#FFFFFF;}
	.st8{fill:#FF4F4E;}
	.st9{fill:#C42C31;}
	.st10{fill:#0075CF;}
	.st11{fill:#0056A8;}
	.st12{fill:#734669;}
</style>
<g id="BACKGROUND">
</g>
<g id="OBJECTS">
	<g>
		<g>
			<path class="st4" d="M48.49,144.25c0,0-23.97,4.82-24.98-15.36c-0.44-8.74-1.62-7.37-9.25-14.73c-7.64-7.37-7.64-10.37-6-17.19
				c1.64-6.82,8.52-9.16,5.12-15.47c-4.48-8.3-3.1-22.49,6.63-28.02c9.41-5.35,10.46-5.28,10.46-10.76c0-7.16,7.44-18.7,22.78-17.5
				c13.19,1.03,11.14-5.39,20.5-8.25c17.42-5.33,25.86,9.76,31.86,10.3c6,0.55,16.39,0.65,21.66,8.62
				c6.54,9.89,0.76,17.96,8.95,18.78c8.18,0.82,16.37,7.91,16.09,15.28c-0.27,7.37-4.64,13.64-1.64,16.91
				c3,3.27,4.16,22.66-7.95,26.37c-16.55,5.07,0,29.57-30.43,29.11C84.92,141.95,48.49,144.25,48.49,144.25z"/>
		</g>
		<g>
			<g>
				<path class="st10" d="M146.92,163.1H9.72c0,0,1.38-17.12,9.66-20.43c1.71-0.69,4.56-2.02,8-3.71c0.48-0.23,0.97-0.47,1.46-0.72
					c0,0,0.01,0,0.01-0.01c0.88-0.44,1.79-0.89,2.72-1.36c6.67-3.35,14.52-7.42,20.63-10.62c0.71-0.37,1.4-0.73,2.06-1.08
					c4.84-2.55,8.17-4.32,8.17-4.32l1.05,0.23c9.75,2.18,19.88,2.1,29.59-0.23c0,0,3.45,1.78,8.46,4.33
					c0.06,0.03,0.13,0.06,0.19,0.1c3.02,1.54,6.6,3.36,10.33,5.23c10.01,5.04,21.05,10.49,25.19,12.15
					C145.54,145.98,146.92,163.1,146.92,163.1z"/>
			</g>
		</g>
		<g>
			<path class="st11" d="M79.67,153.96c-3.4,0-6.36-0.49-8.73-1.11c-5.9-1.53-9.42-4.07-9.57-4.18c-0.33-0.24-0.41-0.71-0.16-1.05
				c0.24-0.33,0.71-0.41,1.05-0.16c0.05,0.04,3.49,2.51,9.12,3.95c5.19,1.34,13.37,2.05,22.86-2.12c0.38-0.17,0.82,0.01,0.99,0.38
				c0.17,0.38-0.01,0.82-0.38,0.99C89.25,153.13,84.09,153.96,79.67,153.96z"/>
		</g>
		<g>
			<path class="st3" d="M101.55,125.19c-1.62,7.04-6.84,20.18-23.23,20.18c-17.46,0-22.62-14.02-24.05-20.19
				c4.84-2.55,8.17-4.32,8.17-4.32l1.05,0.23c9.75,2.18,19.88,2.1,29.59-0.23C93.08,120.86,96.54,122.64,101.55,125.19z"/>
		</g>
		<g>
			<path class="st3" d="M37.3,163.1H9.72c0,0,1.38-17.12,9.66-20.43c1.71-0.69,4.56-2.02,8-3.71c0.48-0.23,0.97-0.47,1.46-0.72
				c0,0,0.01,0,0.01-0.01c0.88-0.44,1.79-0.89,2.72-1.36C33.64,142.63,37.06,153.51,37.3,163.1z"/>
		</g>
		<g>
			<path class="st3" d="M119.33,163.1h27.58c0,0-1.38-17.12-9.66-20.43c-1.71-0.69-4.56-2.02-8.01-3.71
				c-0.48-0.23-0.97-0.47-1.46-0.72c0,0-0.01,0-0.01-0.01c-0.88-0.44-1.79-0.89-2.72-1.36C122.99,142.63,119.57,153.51,119.33,163.1
				z"/>
		</g>
		<g>
			<g>
				<g>
					<g>
						<g>
							<g>
								<path class="st3" d="M93.78,124.35c0,0-2.69,8.46-15.05,8.46c-14.42,0-17.82-7.69-17.82-7.69c1.25-3.32,2.11-6.4,2.69-9.15
									h0c1.07-5.04,1.22-8.99,1.15-11.42l25.33-1c0.23,2.15,0.62,4.67,1.05,7.21C92.29,117.51,93.78,124.35,93.78,124.35z"/>
							</g>
						</g>
					</g>
				</g>
				<g>
					<g>
						<g>
							<g>
								<path class="st4" d="M91.15,110.76c-3.93,2.73-12.51,6.79-27.53,5.21c1.07-5.04,1.22-8.99,1.15-11.42l25.33-1
									C90.33,105.7,90.72,108.22,91.15,110.76z"/>
							</g>
						</g>
					</g>
				</g>
			</g>
			<g>
				<g>
					<g>
						<g>
							<g>
								<g>
									<path class="st3" d="M104.69,72.96c0,0,5.94-8.08,10.55-3.3c4.62,4.78-4.29,21.43-12.37,17.81L104.69,72.96z"/>
								</g>
							</g>
						</g>
					</g>
					<g>
						<g>
							<path class="st0" d="M102.24,87.3c-3.79,1.84-6.4,5.72-6.4,10.21c0,6.26,5.09,11.35,11.34,11.35
								c6.26,0,11.34-5.09,11.34-11.35c0-5.62-4.1-10.29-9.47-11.18c-0.51-0.09-1.03-0.14-1.56-0.15c0.04-0.44,0.13-0.87,0.27-1.28
								c0.88,0.04,1.73,0.17,2.55,0.38c5.46,1.4,9.5,6.35,9.5,12.24c0,6.97-5.67,12.63-12.63,12.63c-6.97,0-12.63-5.67-12.63-12.63
								c0-5.28,3.26-9.82,7.88-11.7L102.24,87.3z"/>
						</g>
					</g>
					<g>
						<g>
							<g>
								<g>
									<path class="st5" d="M107.08,82.5c-0.02,0-0.04,0-0.06,0c-0.22-0.03-0.38-0.24-0.35-0.46c0.83-5.95,5.41-9.48,5.6-9.63
										c0.18-0.14,0.44-0.1,0.57,0.08c0.14,0.18,0.1,0.44-0.08,0.57c-0.05,0.03-4.51,3.49-5.29,9.09
										C107.46,82.36,107.28,82.5,107.08,82.5z"/>
								</g>
							</g>
						</g>
					</g>
					<g>
						<g>
							<g>
								<g>
									<path class="st5" d="M108.32,78.47c-0.08,0-0.16-0.02-0.23-0.07c-0.19-0.13-0.24-0.38-0.11-0.57
										c0.98-1.45,3.63-1.3,3.74-1.29c0.23,0.01,0.4,0.21,0.38,0.43c-0.01,0.23-0.21,0.4-0.43,0.38
										c-0.64-0.04-2.42,0.05-3.01,0.93C108.58,78.41,108.45,78.47,108.32,78.47z"/>
								</g>
							</g>
						</g>
					</g>
				</g>
			</g>
			<g>
				<g>
					<g>
						<g>
							<g>
								<g>
									<path class="st3" d="M53.21,72.96c0,0-5.94-8.08-10.55-3.3c-4.62,4.78,4.29,21.43,12.37,17.81L53.21,72.96z"/>
								</g>
							</g>
						</g>
					</g>
					<g>
						<g>
							<path class="st0" d="M54.82,85.81c4.62,1.88,7.88,6.42,7.88,11.7c0,6.97-5.67,12.63-12.63,12.63s-12.63-5.67-12.63-12.63
								c0-5.88,4.04-10.84,9.5-12.24c0.82-0.21,1.67-0.34,2.55-0.38c0.14,0.41,0.23,0.84,0.27,1.28c-0.53,0.02-1.05,0.06-1.56,0.15
								c-5.37,0.89-9.47,5.57-9.47,11.18c0,6.26,5.09,11.35,11.34,11.35s11.34-5.09,11.34-11.35c0-4.48-2.62-8.37-6.4-10.21
								L54.82,85.81z"/>
						</g>
					</g>
					<g>
						<g>
							<path class="st0" d="M54.82,85.81c4.62,1.88,7.88,6.42,7.88,11.7c0,6.97-5.67,12.63-12.63,12.63s-12.63-5.67-12.63-12.63
								c0-5.88,4.04-10.84,9.5-12.24c0.82-0.21,1.67-0.34,2.55-0.38c0.14,0.41,0.23,0.84,0.27,1.28c-0.53,0.02-1.05,0.06-1.56,0.15
								c-5.37,0.89-9.47,5.57-9.47,11.18c0,6.26,5.09,11.35,11.34,11.35s11.34-5.09,11.34-11.35c0-4.48-2.62-8.37-6.4-10.21
								L54.82,85.81z"/>
						</g>
					</g>
					<g>
						<g>
							<g>
								<g>
									<path class="st5" d="M50.83,82.5c0.02,0,0.04,0,0.06,0c0.22-0.03,0.38-0.24,0.35-0.46c-0.83-5.95-5.41-9.48-5.6-9.63
										c-0.18-0.14-0.44-0.1-0.57,0.08c-0.14,0.18-0.1,0.44,0.08,0.57c0.05,0.03,4.51,3.49,5.29,9.09
										C50.45,82.36,50.63,82.5,50.83,82.5z"/>
								</g>
							</g>
						</g>
					</g>
					<g>
						<g>
							<g>
								<g>
									<path class="st5" d="M49.58,78.47c0.08,0,0.16-0.02,0.23-0.07c0.19-0.13,0.24-0.38,0.11-0.57
										c-0.98-1.45-3.63-1.3-3.74-1.29c-0.23,0.01-0.4,0.21-0.38,0.43c0.01,0.23,0.21,0.4,0.43,0.38
										c0.64-0.04,2.42,0.05,3.01,0.93C49.32,78.41,49.45,78.47,49.58,78.47z"/>
								</g>
							</g>
						</g>
					</g>
				</g>
			</g>
			<g>
				<g>
					<g>
						<g>
							<path class="st3" d="M107.7,74.27c-0.43,16.44-9.35,38.7-28.97,38.23C61.37,112.1,52.74,95.63,50.64,80.6
								c-0.18-1.27-0.31-2.53-0.39-3.76C48.58,52.6,58.22,40.2,78.91,39.53c1.16-0.04,2.36-0.04,3.59,0
								c1.07,0.03,6.25,0.88,7.24,1.21C104.04,45.42,108.15,56.98,107.7,74.27z"/>
						</g>
					</g>
				</g>
			</g>
			<g class="st6">
				<g>
					<path class="st5" d="M68.94,84.13c0,1.9-3.5,3.43-7.82,3.43c-4.32,0-7.82-1.54-7.82-3.43c0-1.9,3.5-3.43,7.82-3.43
						C65.44,80.69,68.94,82.23,68.94,84.13z"/>
				</g>
			</g>
			<g class="st6">
				<g>
					<path class="st5" d="M105.72,84.13c0,1.9-3.5,3.43-7.82,3.43c-4.32,0-7.82-1.54-7.82-3.43c0-1.9,3.5-3.43,7.82-3.43
						C102.22,80.69,105.72,82.23,105.72,84.13z"/>
				</g>
			</g>
			<g>
				<g>
					<path class="st4" d="M67.46,54.33c-5.09,0.39-3.56,6.28-8.56,9.16c-5.5,3.16-4.82,5.06-3.49,9.49
						c1.98,6.59-4.52,8.15-4.52,8.15c-0.08-0.17-0.16-0.35-0.24-0.53c-0.18-1.27-0.31-2.53-0.39-3.76
						c-1.67-24.23,6.07-38.35,28.66-37.31C81.71,50.14,74.27,53.81,67.46,54.33z"/>
				</g>
				<g>
					<path class="st4" d="M89.93,52.59c6.76-0.11,4.4,6.89,8.39,10.11c4.94,3.98,6.56,2.29,4.39,8.81c-2.24,6.75,4.2,9.61,4.2,9.61
						c0.08-0.17,0.16-0.35,0.24-0.53c0.18-1.27,0.31-2.53,0.39-3.76c1.67-24.23-6.52-38.28-28.65-37.31
						C76.09,50.14,83.1,52.7,89.93,52.59z"/>
				</g>
			</g>
			<g>
				<path class="st4" d="M72.17,62.71c-2.65,0.06-8.44,0.77-11.04,5.59c0,0,5.98-2.84,10.98-2.54c0.96,0.06,1.73-0.77,1.61-1.72l0,0
					C73.62,63.27,72.95,62.7,72.17,62.71z"/>
			</g>
			<g>
				<path class="st4" d="M86.86,62.71c2.65,0.06,8.44,0.77,11.04,5.59c0,0-5.98-2.84-10.98-2.54c-0.96,0.06-1.73-0.77-1.61-1.72h0
					C85.41,63.27,86.08,62.7,86.86,62.71z"/>
			</g>
			<g>
				<path class="st5" d="M80.29,90.3c-0.93,0-1.95-0.24-3.07-0.73c-0.31-0.13-0.49-0.45-0.45-0.78l1.57-12.04
					c0.05-0.41,0.43-0.7,0.84-0.65c0.41,0.05,0.7,0.43,0.65,0.84L78.34,88.4c1.55,0.57,2.75,0.52,3.74-0.14
					c0.34-0.23,0.81-0.14,1.04,0.2c0.23,0.34,0.14,0.81-0.2,1.04C82.13,90.03,81.26,90.3,80.29,90.3z"/>
			</g>
			<g>
				<path class="st5" d="M78.81,98.26c-0.66,0-1.28-0.04-1.85-0.11c-3.43-0.39-5.82-1.72-5.92-1.77c-0.36-0.2-0.49-0.66-0.29-1.02
					c0.2-0.36,0.66-0.49,1.02-0.29l0,0c0.36,0.2,8.94,4.83,16.37-2.04c0.3-0.28,0.78-0.26,1.06,0.04c0.28,0.3,0.26,0.78-0.04,1.06
					C85.61,97.4,81.81,98.26,78.81,98.26z"/>
			</g>
			<g>
				<path class="st5" d="M80.11,102.66c-1.75,0-3.14-0.43-3.24-0.46c-0.4-0.12-0.62-0.54-0.49-0.94c0.12-0.4,0.54-0.62,0.94-0.49
					c0.04,0.01,3.47,1.05,5.89-0.32c0.36-0.2,0.82-0.08,1.02,0.28c0.2,0.36,0.08,0.82-0.28,1.02
					C82.72,102.45,81.33,102.66,80.11,102.66z"/>
			</g>
			<g>
				<g>
					<g>
						<g>
							<g>
								<g>
									<path class="st4" d="M70,74.24c0.04,2.09-0.74,3.81-1.72,3.82c-0.99,0.02-1.82-1.67-1.86-3.76
										c-0.04-2.09,0.74-3.81,1.72-3.82C69.13,70.46,69.96,72.15,70,74.24z"/>
								</g>
							</g>
						</g>
					</g>
				</g>
				<g>
					<g>
						<g>
							<g>
								<g>
									<path class="st4" d="M88.72,74.24c-0.04,2.09,0.74,3.81,1.72,3.82c0.99,0.02,1.82-1.67,1.86-3.76
										c0.04-2.09-0.74-3.81-1.72-3.82C89.58,70.46,88.75,72.15,88.72,74.24z"/>
								</g>
							</g>
						</g>
					</g>
				</g>
			</g>
		</g>
	</g>
</g>
</svg>
