<?xml version="1.0" encoding="utf-8"?>
<!-- Generator: Adobe Illustrator 24.2.0, SVG Export Plug-In . SVG Version: 6.00 Build 0)  -->
<svg version="1.1" xmlns="http://www.w3.org/2000/svg" xmlns:xlink="http://www.w3.org/1999/xlink" x="0px" y="0px"
	 viewBox="0 0 137.2 157.08" style="enable-background:new 0 0 137.2 157.08;" xml:space="preserve">
<style type="text/css">
	.st0{fill:#FFF7F1;}
	.st1{fill:#FF9A40;}
	.st2{fill:#E96D17;}
	.st3{fill:#FFB8A1;}
	.st4{fill:#3F2037;}
	.st5{fill:#FF8A8A;}
	.st6{opacity:0.5;}
	.st7{fill:#FFFFFF;}
	.st8{fill:#FF4F4E;}
	.st9{fill:#C42C31;}
	.st10{fill:#0075CF;}
	.st11{fill:#0056A8;}
	.st12{fill:#734669;}
</style>
<g id="BACKGROUND">
</g>
<g id="OBJECTS">
	<g>
		<g>
			<g>
				<path class="st1" d="M32.12,129.81c0,0-10.18-8.57-4.16-22.55c6.02-13.98,23.62-16.05,40.56-16.05
					c25.84-0.01,56.72,8.89,36.12,38.6C104.65,129.81,79,146.76,32.12,129.81z"/>
			</g>
		</g>
		<g>
			<g>
				<path class="st2" d="M57.61,113.06c-0.33,0-0.63-0.21-0.74-0.54c-1.89-5.85-7.1-9.53-7.15-9.56c-0.35-0.24-0.44-0.73-0.19-1.08
					c0.24-0.35,0.72-0.44,1.08-0.19c0.23,0.16,5.69,4,7.74,10.36c0.13,0.41-0.09,0.84-0.5,0.97
					C57.77,113.05,57.69,113.06,57.61,113.06z"/>
			</g>
		</g>
		<g>
			<g>
				<path class="st2" d="M68.58,123.45c-0.25,0-0.5-0.13-0.65-0.36c-6.74-10.5-26.8-13.54-27-13.57c-0.42-0.06-0.71-0.45-0.65-0.88
					c0.06-0.42,0.45-0.72,0.88-0.65c0.85,0.12,20.95,3.17,28.08,14.26c0.23,0.36,0.13,0.84-0.23,1.07
					C68.87,123.41,68.72,123.45,68.58,123.45z"/>
			</g>
		</g>
		<g>
			<g>
				<path class="st1" d="M138.11,156.51H0.91c0,0,1.38-17.12,9.66-20.43c3.35-1.34,11.02-5.16,18.98-9.23
					c11.12-5.69,22.8-11.89,23.99-12.52c0.07-0.04,0.1-0.05,0.1-0.05l1.05,0.24c1.31,0.29,2.63,0.55,3.95,0.75
					c1.31,0.21,2.62,0.38,3.93,0.51c7.24,0.71,14.57,0.21,21.68-1.49c0.01,0,0.02-0.01,0.03-0.01c0,0,8.97,4.62,18.98,9.66
					c1.28,0.64,2.58,1.3,3.88,1.95c8.84,4.43,17.7,8.75,21.31,10.2C136.73,139.39,138.11,156.51,138.11,156.51z"/>
			</g>
		</g>
		<g>
			<g>
				<g>
					<g>
						<g>
							<g>
								<path class="st2" d="M75.88,134.72c-7.55,0-13.81-1.99-18.26-4.03c-7.04-3.23-11.05-7.19-11.21-7.36
									c-0.28-0.28-0.28-0.74,0-1.02c0.28-0.28,0.74-0.28,1.02,0c0.04,0.04,4.03,3.97,10.85,7.09c6.27,2.87,16.29,5.63,28.44,2.46
									c0.39-0.1,0.78,0.13,0.88,0.52c0.1,0.39-0.13,0.78-0.52,0.88C83.11,134.3,79.36,134.72,75.88,134.72z"/>
							</g>
						</g>
					</g>
				</g>
			</g>
			<g>
				<g>
					<g>
						<g>
							<g>
								<path class="st2" d="M72.32,141.68c-2.43,0-5.11-0.24-7.99-0.85c-0.39-0.08-0.64-0.46-0.56-0.85
									c0.08-0.39,0.47-0.64,0.85-0.56c14.26,2.98,23.18-3.28,23.27-3.34c0.32-0.23,0.78-0.16,1.01,0.17
									c0.23,0.32,0.16,0.78-0.17,1.01C88.43,137.48,82.43,141.68,72.32,141.68z"/>
							</g>
						</g>
					</g>
				</g>
			</g>
		</g>
		<g>
			<g>
				<g>
					<g>
						<g>
							<g>
								<g>
									<path class="st3" d="M84.98,117.77c0,0-2.69,8.46-15.05,8.46c-14.42,0-17.82-7.69-17.82-7.69c1.25-3.32,2.11-6.4,2.69-9.15
										h0c1.07-5.04,1.22-8.99,1.15-11.42l25.34-1c0.23,2.15,0.62,4.67,1.05,7.21C83.49,110.93,84.98,117.77,84.98,117.77z"/>
								</g>
							</g>
						</g>
					</g>
				</g>
				<g>
					<g>
						<g>
							<g>
								<g>
									<path class="st4" d="M82.34,104.18c-3.93,2.73-12.51,6.79-27.53,5.21c1.07-5.04,1.22-8.99,1.15-11.42l25.34-1
										C81.53,99.11,81.91,101.64,82.34,104.18z"/>
								</g>
							</g>
						</g>
					</g>
				</g>
			</g>
			<g>
				<g>
					<g>
						<g>
							<g>
								<g>
									<g>
										<path class="st3" d="M46.29,64.93c0,0-7.84-10.67-13.94-4.36c-6.1,6.32,5.66,28.31,16.33,23.52L46.29,64.93z"/>
									</g>
								</g>
							</g>
						</g>
					</g>
					<g>
						<g>
							<g>
								<g>
									<g>
										<path class="st5" d="M42.55,77.54c-0.27,0-0.5-0.2-0.54-0.47c-1.03-7.42-6.92-11.97-6.98-12.01
											c-0.24-0.18-0.28-0.52-0.1-0.76s0.52-0.28,0.76-0.1c0.26,0.19,6.31,4.87,7.4,12.72c0.04,0.3-0.17,0.57-0.46,0.61
											C42.6,77.54,42.58,77.54,42.55,77.54z"/>
									</g>
								</g>
							</g>
						</g>
					</g>
					<g>
						<g>
							<g>
								<g>
									<g>
										<path class="st5" d="M40.91,72.22c-0.17,0-0.34-0.08-0.45-0.24c-0.79-1.16-3.14-1.28-3.98-1.23
											c-0.3,0.02-0.56-0.21-0.57-0.51c-0.02-0.3,0.21-0.56,0.51-0.57c0.15-0.01,3.65-0.2,4.94,1.7c0.17,0.25,0.1,0.58-0.15,0.75
											C41.12,72.19,41.01,72.22,40.91,72.22z"/>
									</g>
								</g>
							</g>
						</g>
					</g>
				</g>
			</g>
			<g>
				<g>
					<g>
						<g>
							<g>
								<g>
									<g>
										<path class="st3" d="M94.06,64.93c0,0,7.84-10.67,13.94-4.36c6.1,6.32-5.66,28.31-16.33,23.52L94.06,64.93z"/>
									</g>
								</g>
							</g>
						</g>
					</g>
					<g>
						<g>
							<g>
								<g>
									<g>
										<path class="st5" d="M97.8,77.54c-0.02,0-0.05,0-0.08-0.01c-0.3-0.04-0.5-0.31-0.46-0.61c1.09-7.85,7.14-12.53,7.4-12.72
											c0.24-0.18,0.58-0.13,0.76,0.1c0.18,0.24,0.13,0.58-0.1,0.76c-0.06,0.04-5.96,4.61-6.98,12.01
											C98.29,77.35,98.06,77.54,97.8,77.54z"/>
									</g>
								</g>
							</g>
						</g>
					</g>
					<g>
						<g>
							<g>
								<g>
									<g>
										<path class="st5" d="M99.44,72.22c-0.1,0-0.21-0.03-0.3-0.09c-0.25-0.17-0.31-0.5-0.15-0.75c1.29-1.91,4.79-1.71,4.94-1.7
											c0.3,0.02,0.52,0.28,0.51,0.57c-0.02,0.3-0.28,0.53-0.57,0.51c-0.84-0.05-3.19,0.07-3.98,1.23
											C99.78,72.13,99.61,72.22,99.44,72.22z"/>
									</g>
								</g>
							</g>
						</g>
					</g>
				</g>
			</g>
			<g>
				<g>
					<g>
						<g>
							<g>
								<path class="st3" d="M76.79,33.82C54.85,28.47,35,48.3,39.95,70.32c3.49,15.55,11.15,35.15,29.98,35.6
									c19.62,0.46,27.49-20.9,30.29-37.11c2.56-14.83-6.08-29.44-20.39-34.13C78.84,34.37,77.82,34.07,76.79,33.82z"/>
							</g>
						</g>
					</g>
				</g>
			</g>
			<g>
				<g>
					<path class="st5" d="M71.49,83.74c-0.93,0-1.95-0.24-3.08-0.73c-0.32-0.14-0.5-0.47-0.46-0.81l1.57-12.04
						c0.06-0.42,0.44-0.72,0.87-0.67c0.42,0.06,0.72,0.44,0.67,0.87L69.56,81.8c1.54,0.56,2.73,0.51,3.71-0.15
						c0.35-0.24,0.83-0.15,1.07,0.21c0.24,0.35,0.15,0.83-0.21,1.07C73.34,83.47,72.46,83.74,71.49,83.74z"/>
				</g>
			</g>
			<g>
				<g>
					<path class="st5" d="M70.06,91.68c-4.43,0-7.79-1.83-7.84-1.86c-0.37-0.21-0.51-0.68-0.3-1.05c0.21-0.37,0.68-0.51,1.05-0.3
						c0.37,0.21,8.93,4.82,16.34-2.03c0.31-0.29,0.8-0.27,1.09,0.04c0.29,0.31,0.27,0.8-0.04,1.09
						C76.92,90.75,73.22,91.68,70.06,91.68z"/>
				</g>
			</g>
			<g>
				<g>
					<path class="st5" d="M71.31,96.1c-1.75,0-3.15-0.43-3.25-0.46c-0.41-0.13-0.63-0.56-0.51-0.97c0.13-0.41,0.56-0.63,0.97-0.51
						l0,0c0.03,0.01,3.46,1.05,5.87-0.32c0.37-0.21,0.84-0.08,1.05,0.29c0.21,0.37,0.08,0.84-0.29,1.05
						C73.92,95.89,72.53,96.1,71.31,96.1z"/>
				</g>
			</g>
			<g>
				<g>
					<path class="st4" d="M54.99,61.75c1.66-0.89,4.09-2,6.46-2.34c1.27-0.19,2.07-1.46,1.63-2.67l-0.09-0.24
						c-0.31-0.87-1.18-1.42-2.1-1.32c-2.11,0.22-5.84,0.96-8.28,3.39c-0.53,0.53-0.71,1.31-0.49,2.02l0,0
						C52.5,61.78,53.88,62.35,54.99,61.75z"/>
				</g>
			</g>
			<g>
				<g>
					<path class="st4" d="M86.98,61.75c-1.66-0.89-4.09-2-6.46-2.34c-1.27-0.19-2.07-1.46-1.63-2.67l0.09-0.24
						c0.31-0.87,1.18-1.42,2.1-1.32c2.11,0.22,5.84,0.96,8.28,3.39c0.53,0.53,0.71,1.31,0.49,2.02l0,0
						C89.46,61.78,88.09,62.35,86.98,61.75z"/>
				</g>
			</g>
			<g class="st6">
				<g>
					<path class="st5" d="M60.65,75.65c0,1.9-3.5,3.43-7.82,3.43c-4.32,0-7.82-1.54-7.82-3.43c0-1.9,3.5-3.43,7.82-3.43
						C57.15,72.22,60.65,73.75,60.65,75.65z"/>
				</g>
			</g>
			<g class="st6">
				<g>
					<path class="st5" d="M97.43,75.65c0,1.9-3.5,3.43-7.82,3.43c-4.32,0-7.82-1.54-7.82-3.43c0-1.9,3.5-3.43,7.82-3.43
						C93.93,72.22,97.43,73.75,97.43,75.65z"/>
				</g>
			</g>
			<g>
				<g>
					<g>
						<g>
							<g>
								<path class="st4" d="M40.76,73.71c0,0-4.12-22.7-2.85-27.89c1.27-5.19,3.93-4.24,3.93-4.24S19.63,23.38,30.68,13.05
									c8-7.47,17.2,8.52,17.2,8.52S43.33,5.85,49.8,3.69C57.88,1,61.53,19.84,61.53,19.84S60.86,5.79,67.42,6.06
									c9.1,0.38,3.97,10.89,13.84,14.99c9.87,4.1,24.77,6.18,19.4,22.71c0,0,7.24-0.32-1.77,29.18l0,0
									c-2.32-3.23-3.49-7.16-3.3-11.13c0.15-3.05,0.13-6.59-0.49-8.76c0,0-5.64-3.94-5.38-9.71c0,0-19.86,11.79-38.19,1.28
									c0,0,1.15,6.79-4.61,7.82c0,0-1.88,4.42-2.51,10.7c-0.36,3.64-1.52,7.16-3.47,10.26L40.76,73.71z"/>
							</g>
						</g>
					</g>
				</g>
			</g>
			<g>
				<g>
					<g>
						<g>
							<g>
								<path class="st4" d="M98.82,33.4c0,0,3.14-10.71,8.21-7.97c3.62,1.96-4.81,10.11-4.81,10.11s7.09-3.83,10.59-1.13
									c3.5,2.7-5.79,5.89-11.13,4.98C96.32,38.47,98.82,33.4,98.82,33.4z"/>
							</g>
						</g>
					</g>
				</g>
			</g>
			<g>
				<g>
					<g>
						<g>
							<g>
								<g>
									<g>
										<path class="st4" d="M61.2,67.66c0.04,2.09-0.74,3.81-1.72,3.82c-0.99,0.02-1.82-1.67-1.86-3.76
											c-0.04-2.09,0.74-3.81,1.72-3.82C60.33,63.88,61.16,65.56,61.2,67.66z"/>
									</g>
								</g>
							</g>
						</g>
					</g>
				</g>
				<g>
					<g>
						<g>
							<g>
								<g>
									<g>
										<path class="st4" d="M79.91,67.66c-0.04,2.09,0.74,3.81,1.72,3.82c0.99,0.02,1.82-1.67,1.86-3.76
											c0.04-2.09-0.74-3.81-1.72-3.82C80.78,63.88,79.95,65.56,79.91,67.66z"/>
									</g>
								</g>
							</g>
						</g>
					</g>
				</g>
			</g>
		</g>
		<g>
			<g>
				<path class="st7" d="M49.46,134.99v21.52h-1.55v-21.52c0-0.17,0.06-0.33,0.15-0.46c0.14-0.19,0.37-0.31,0.62-0.31
					c0.37,0,0.69,0.27,0.76,0.62C49.45,134.89,49.46,134.94,49.46,134.99z"/>
			</g>
		</g>
		<g>
			<g>
				<path class="st7" d="M92.43,134.99v21.52h-1.55v-21.52c0-0.43,0.35-0.77,0.77-0.77c0.34,0,0.63,0.22,0.73,0.53
					C92.42,134.82,92.43,134.91,92.43,134.99z"/>
			</g>
		</g>
	</g>
</g>
</svg>
